version 1.00
334
[2.08042,-0.927956,-2.29604][0.637795,0,-0.771654][37.87,-9.05588,0][1.72497,-0.927956,-2.58744][0.503937,0,-0.866142][37.8922,-9.05588,0][1.72497,-0.461498,-2.58744][0.551181,0.125984,-0.826772][37.8922,-9.02672,0][1.53957,-0.927956,-2.67812][0.440945,0,-0.897638][37.9038,-9.05588,0][0.983382,-0.927956,-2.95014][0.251969,0,-0.968504][37.9385,-9.05588,0][0.983382,-0.461498,-2.95014][0.330709,0.15748,-0.929134][37.9385,-9.02672,0][1.72497,-0.927956,-2.58744][0.503937,0,-0.866142][37.8922,-9.05588,0][1.53957,-0.927956,-2.67812][0.440945,0,-0.897638][37.9038,-9.05588,0][0.983382,-0.461498,-2.95014][0.330709,0.15748,-0.929134][37.9385,-9.02672,0][1.72497,-0.927956,-2.58744][0.503937,0,-0.866142][37.8922,-9.05588,0][0.983382,-0.461498,-2.95014][0.330709,0.15748,-0.929134][37.9385,-9.02672,0][1.72497,-0.461498,-2.58744][0.551181,0.125984,-0.826772][37.8922,-9.02672,0][2.1989,-0.927956,-2.1989][0.692913,0,-0.724409][37.8626,-9.05588,0][2.08042,-0.927956,-2.29604][0.637795,0,-0.771654][37.87,-9.05588,0][1.72497,-0.461498,-2.58744][0.551181,0.125984,-0.826772][37.8922,-9.02672,0][2.1989,-0.927956,-2.1989][0.692913,0,-0.724409][37.8626,-9.05588,0][1.72497,-0.461498,-2.58744][0.551181,0.125984,-0.826772][37.8922,-9.02672,0][2.1989,-0.461498,-2.1989][0.724409,0.11811,-0.677165][37.8626,-9.02672,0][2.49032,-0.927956,-1.84345][0.771654,0,-0.637795][38.1152,-9.05588,0][2.1989,-0.927956,-2.1989][0.692913,0,-0.724409][38.1374,-9.05588,0][2.1989,-0.461498,-2.1989][0.724409,0.11811,-0.677165][38.1374,-9.02672,0][0.737538,-0.927956,-2.99004][0.15748,0,-0.984252][37.9539,-9.05588,0][1.21378e-07,-0.927956,-3.10972][-0.0393701,0,-1][38,-9.05588,0][1.00989e-07,-0.461498,-3.10972][0.0472441,0.173228,-0.984252][38,-9.02672,0][0.983382,-0.927956,-2.95014][0.251969,0,-0.968504][37.9385,-9.05588,0][0.737538,-0.927956,-2.99004][0.15748,0,-0.984252][37.9539,-9.05588,0][1.00989e-07,-0.461498,-3.10972][0.0472441,0.173228,-0.984252][38,-9.02672,0][0.983382,-0.927956,-2.95014][0.251969,0,-0.968504][37.9385,-9.05588,0][1.00989e-07,-0.461498,-3.10972][0.0472441,0.173228,-0.984252][38,-9.02672,0][0.983382,-0.461498,-2.95014][0.330709,0.15748,-0.929134][37.9385,-9.02672,0][2.58744,-0.927956,-1.72497][0.834646,0,-0.551181][38.1078,-9.05588,0][2.49032,-0.927956,-1.84345][0.771654,0,-0.637795][38.1152,-9.05588,0][2.1989,-0.461498,-2.1989][0.724409,0.11811,-0.677165][38.1374,-9.02672,0][2.58744,-0.927956,-1.72497][0.834646,0,-0.551181][38.1078,-9.05588,0][2.1989,-0.461498,-2.1989][0.724409,0.11811,-0.677165][38.1374,-9.02672,0][2.58744,-0.461498,-1.72497][0.858268,0.149606,-0.488189][38.1078,-9.02672,0][2.85948,-0.927956,-1.16878][0.897638,0,-0.440945][38.073,-9.05588,0][2.58744,-0.927956,-1.72497][0.834646,0,-0.551181][38.1078,-9.05588,0][2.58744,-0.461498,-1.72497][0.858268,0.149606,-0.488189][38.1078,-9.02672,0][-0.245844,-0.927956,-3.06984][-0.15748,0,-0.984252][38.0154,-9.05588,0][-0.983382,-0.927956,-2.95014][-0.322835,0,-0.944882][38.0615,-9.05588,0][-0.983382,-0.461498,-2.95014][-0.23622,0.165354,-0.952756][38.0615,-9.02672,0][1.21378e-07,-0.927956,-3.10972][-0.0393701,0,-1][38,-9.05588,0][-0.245844,-0.927956,-3.06984][-0.15748,0,-0.984252][38.0154,-9.05588,0][-0.983382,-0.461498,-2.95014][-0.23622,0.165354,-0.952756][38.0615,-9.02672,0][1.21378e-07,-0.927956,-3.10972][-0.0393701,0,-1][38,-9.05588,0][-0.983382,-0.461498,-2.95014][-0.23622,0.165354,-0.952756][38.0615,-9.02672,0][1.00989e-07,-0.461498,-3.10972][0.0472441,0.173228,-0.984252][38,-9.02672,0][2.95014,-0.927956,-0.983382][0.944882,0,-0.322835][38.0615,-9.05588,0][2.85948,-0.927956,-1.16878][0.897638,0,-0.440945][38.073,-9.05588,0][2.58744,-0.461498,-1.72497][0.858268,0.149606,-0.488189][38.1078,-9.02672,0][2.95014,-0.927956,-0.983382][0.944882,0,-0.322835][38.0615,-9.05588,0][2.58744,-0.461498,-1.72497][0.858268,0.149606,-0.488189][38.1078,-9.02672,0][2.95014,-0.461498,-0.983382][0.952756,0.165354,-0.23622][38.0615,-9.02672,0][3.06984,-0.927956,-0.245846][0.984252,0,-0.15748][38.0154,-9.05588,0][2.95014,-0.927956,-0.983382][0.944882,0,-0.322835][38.0615,-9.05588,0][2.95014,-0.461498,-0.983382][0.952756,0.165354,-0.23622][38.0615,-9.02672,0][-1.16878,-0.927956,-2.85948][-0.440945,0,-0.897638][38.073,-9.05588,0][-1.72497,-0.927956,-2.58744][-0.551181,0,-0.834646][38.1078,-9.05588,0][-1.72497,-0.461498,-2.58744][-0.488189,0.149606,-0.858268][38.1078,-9.02672,0][-0.983382,-0.927956,-2.95014][-0.322835,0,-0.944882][38.0615,-9.05588,0][-1.16878,-0.927956,-2.85948][-0.440945,0,-0.897638][38.073,-9.05588,0][-1.72497,-0.461498,-2.58744][-0.488189,0.149606,-0.858268][38.1078,-9.02672,0][-0.983382,-0.927956,-2.95014][-0.322835,0,-0.944882][38.0615,-9.05588,0][-1.72497,-0.461498,-2.58744][-0.488189,0.149606,-0.858268][38.1078,-9.02672,0][-0.983382,-0.461498,-2.95014][-0.23622,0.165354,-0.952756][38.0615,-9.02672,0][3.10972,-0.927956,-2.99668e-07][1,0,-0.0393701][38,-9.05588,0][3.06984,-0.927956,-0.245846][0.984252,0,-0.15748][38.0154,-9.05588,0][2.95014,-0.461498,-0.983382][0.952756,0.165354,-0.23622][38.0615,-9.02672,0][3.10972,-0.927956,-2.99668e-07][1,0,-0.0393701][38,-9.05588,0][2.95014,-0.461498,-0.983382][0.952756,0.165354,-0.23622][38.0615,-9.02672,0][3.10972,-0.461498,-2.96444e-07][0.984252,0.173228,0.0472441][38,-9.02672,0][2.99004,-0.927956,0.737538][0.984252,0,0.15748][37.9539,-9.05588,0][3.10972,-0.927956,-2.99668e-07][1,0,-0.0393701][38,-9.05588,0][3.10972,-0.461498,-2.96444e-07][0.984252,0.173228,0.0472441][38,-9.02672,0][-1.84345,-0.927956,-2.49032][-0.637795,0,-0.771654][38.1152,-9.05588,0][-2.19884,-0.927956,-2.19896][-0.724409,0,-0.692913][38.1374,-9.05588,0][-2.1989,-0.461498,-2.1989][-0.677165,0.11811,-0.724409][38.1374,-9.02672,0][-1.72497,-0.927956,-2.58744][-0.551181,0,-0.834646][38.1078,-9.05588,0][-1.84345,-0.927956,-2.49032][-0.637795,0,-0.771654][38.1152,-9.05588,0][-2.1989,-0.461498,-2.1989][-0.677165,0.11811,-0.724409][38.1374,-9.02672,0][-1.72497,-0.927956,-2.58744][-0.551181,0,-0.834646][38.1078,-9.05588,0][-2.1989,-0.461498,-2.1989][-0.677165,0.11811,-0.724409][38.1374,-9.02672,0][-1.72497,-0.461498,-2.58744][-0.488189,0.149606,-0.858268][38.1078,-9.02672,0][2.95014,-0.927956,0.983382][0.968504,0,0.251969][37.9385,-9.05588,0][2.99004,-0.927956,0.737538][0.984252,0,0.15748][37.9539,-9.05588,0][3.10972,-0.461498,-2.96444e-07][0.984252,0.173228,0.0472441][38,-9.02672,0][2.95014,-0.927956,0.983382][0.968504,0,0.251969][37.9385,-9.05588,0][3.10972,-0.461498,-2.96444e-07][0.984252,0.173228,0.0472441][38,-9.02672,0][2.95014,-0.461498,0.983382][0.929134,0.15748,0.330709][37.9385,-9.02672,0][2.67812,-0.927956,1.53957][0.897638,0,0.440945][37.9038,-9.05588,0][2.95014,-0.927956,0.983382][0.968504,0,0.251969][37.9385,-9.05588,0][2.95014,-0.461498,0.983382][0.929134,0.15748,0.330709][37.9385,-9.02672,0][-2.29604,-0.927956,-2.08042][-0.771654,0,-0.637795][37.87,-9.05588,0][-2.58744,-0.927956,-1.72497][-0.866142,0,-0.503937][37.8922,-9.05588,0][-2.58744,-0.461498,-1.72497][-0.826772,0.125984,-0.551181][37.8922,-9.02672,0][-2.19884,-0.927956,-2.19896][-0.724409,0,-0.692913][37.8626,-9.05588,0][-2.29604,-0.927956,-2.08042][-0.771654,0,-0.637795][37.87,-9.05588,0][-2.58744,-0.461498,-1.72497][-0.826772,0.125984,-0.551181][37.8922,-9.02672,0][-2.19884,-0.927956,-2.19896][-0.724409,0,-0.692913][37.8626,-9.05588,0][-2.58744,-0.461498,-1.72497][-0.826772,0.125984,-0.551181][37.8922,-9.02672,0][-2.1989,-0.461498,-2.1989][-0.677165,0.11811,-0.724409][37.8626,-9.02672,0][2.58744,-0.927956,1.72497][0.866142,0,0.503937][37.8922,-9.05588,0][2.67812,-0.927956,1.53957][0.897638,0,0.440945][37.9038,-9.05588,0][2.95014,-0.461498,0.983382][0.929134,0.15748,0.330709][37.9385,-9.02672,0][2.58744,-0.927956,1.72497][0.866142,0,0.503937][37.8922,-9.05588,0][2.95014,-0.461498,0.983382][0.929134,0.15748,0.330709][37.9385,-9.02672,0][2.58744,-0.461498,1.72497][0.826772,0.133858,0.543307][37.8922,-9.02672,0][2.29604,-0.927956,2.08042][0.771654,0,0.637795][37.87,-9.05588,0][2.58744,-0.927956,1.72497][0.866142,0,0.503937][37.8922,-9.05588,0][2.58744,-0.461498,1.72497][0.826772,0.133858,0.543307][37.8922,-9.02672,0][-2.67812,-0.927956,-1.53957][-0.897638,0,-0.440945][37.9038,-9.05588,0][-2.95014,-0.927956,-0.983382][-0.968504,0,-0.251969][37.9385,-9.05588,0][-2.95014,-0.461498,-0.983382][-0.929134,0.15748,-0.330709][37.9385,-9.02672,0][-2.58744,-0.927956,-1.72497][-0.866142,0,-0.503937][37.8922,-9.05588,0][-2.67812,-0.927956,-1.53957][-0.897638,0,-0.440945][37.9038,-9.05588,0][-2.95014,-0.461498,-0.983382][-0.929134,0.15748,-0.330709][37.9385,-9.02672,0][-2.58744,-0.927956,-1.72497][-0.866142,0,-0.503937][37.8922,-9.05588,0][-2.95014,-0.461498,-0.983382][-0.929134,0.15748,-0.330709][37.9385,-9.02672,0][-2.58744,-0.461498,-1.72497][-0.826772,0.125984,-0.551181][37.8922,-9.02672,0][2.19896,-0.927956,2.19884][0.669291,0,0.740157][37.8626,-9.05588,0][2.29604,-0.927956,2.08042][0.771654,0,0.637795][37.87,-9.05588,0][2.1989,-0.461498,2.1989][0.677165,0.110236,0.724409][37.8626,-9.02672,0][2.1989,-0.461498,2.1989][0.677165,0.110236,0.724409][37.8626,-9.02672,0][2.29604,-0.927956,2.08042][0.771654,0,0.637795][37.87,-9.05588,0][2.58744,-0.461498,1.72497][0.826772,0.133858,0.543307][37.8922,-9.02672,0][1.84345,-0.927956,2.49032][0.637795,0,0.771654][38.1152,-9.05588,0][2.19896,-0.927956,2.19884][0.669291,0,0.740157][38.1374,-9.05588,0][2.1989,-0.461498,2.1989][0.677165,0.110236,0.724409][38.1374,-9.02672,0][-2.99004,-0.927956,-0.737538][-0.984252,0,-0.15748][37.9539,-9.05588,0][-3.10972,-0.927956,-6.42032e-08][-1,0,0.0393701][38,-9.05588,0][-3.10972,-0.461498,-2.92904e-07][-0.984252,0.173228,-0.0472441][38,-9.02672,0][-2.95014,-0.927956,-0.983382][-0.968504,0,-0.251969][37.9385,-9.05588,0][-2.99004,-0.927956,-0.737538][-0.984252,0,-0.15748][37.9539,-9.05588,0][-3.10972,-0.461498,-2.92904e-07][-0.984252,0.173228,-0.0472441][38,-9.02672,0][-2.95014,-0.927956,-0.983382][-0.968504,0,-0.251969][37.9385,-9.05588,0][-3.10972,-0.461498,-2.92904e-07][-0.984252,0.173228,-0.0472441][38,-9.02672,0][-2.95014,-0.461498,-0.983382][-0.929134,0.15748,-0.330709][37.9385,-9.02672,0][1.72497,-0.927956,2.58744][0.551181,0,0.834646][38.1078,-9.05588,0][1.84345,-0.927956,2.49032][0.637795,0,0.771654][38.1152,-9.05588,0][2.1989,-0.461498,2.1989][0.677165,0.110236,0.724409][38.1374,-9.02672,0][1.72497,-0.927956,2.58744][0.551181,0,0.834646][38.1078,-9.05588,0][2.1989,-0.461498,2.1989][0.677165,0.110236,0.724409][38.1374,-9.02672,0][1.72497,-0.461498,2.58744][0.488189,0.149606,0.858268][38.1078,-9.02672,0][1.16878,-0.927956,2.85948][0.440945,0,0.897638][38.073,-9.05588,0][1.72497,-0.927956,2.58744][0.551181,0,0.834646][38.1078,-9.05588,0][1.72497,-0.461498,2.58744][0.488189,0.149606,0.858268][38.1078,-9.02672,0][-3.06984,-0.927956,0.245844][-0.984252,0,0.15748][38.0154,-9.05588,0][-2.95014,-0.927956,0.983382][-0.944882,0,0.322835][38.0615,-9.05588,0][-2.95014,-0.461498,0.983382][-0.952756,0.165354,0.23622][38.0615,-9.02672,0][-3.10972,-0.927956,-6.42032e-08][-1,0,0.0393701][38,-9.05588,0][-3.06984,-0.927956,0.245844][-0.984252,0,0.15748][38.0154,-9.05588,0][-2.95014,-0.461498,0.983382][-0.952756,0.165354,0.23622][38.0615,-9.02672,0][-3.10972,-0.927956,-6.42032e-08][-1,0,0.0393701][38,-9.05588,0][-2.95014,-0.461498,0.983382][-0.952756,0.165354,0.23622][38.0615,-9.02672,0][-3.10972,-0.461498,-2.92904e-07][-0.984252,0.173228,-0.0472441][38,-9.02672,0][0.983382,-0.927956,2.95014][0.322835,0,0.944882][38.0615,-9.05588,0][1.16878,-0.927956,2.85948][0.440945,0,0.897638][38.073,-9.05588,0][1.72497,-0.461498,2.58744][0.488189,0.149606,0.858268][38.1078,-9.02672,0][0.983382,-0.927956,2.95014][0.322835,0,0.944882][38.0615,-9.05588,0][1.72497,-0.461498,2.58744][0.488189,0.149606,0.858268][38.1078,-9.02672,0][0.983382,-0.461498,2.95014][0.23622,0.165354,0.952756][38.0615,-9.02672,0][0.245844,-0.927956,3.06984][0.15748,0,0.984252][38.0154,-9.05588,0][0.983382,-0.927956,2.95014][0.322835,0,0.944882][38.0615,-9.05588,0][0.983382,-0.461498,2.95014][0.23622,0.165354,0.952756][38.0615,-9.02672,0][-2.85948,-0.927956,1.16878][-0.897638,0,0.440945][38.073,-9.05588,0][-2.58744,-0.927956,1.72497][-0.834646,0,0.551181][38.1078,-9.05588,0][-2.58744,-0.461498,1.72497][-0.858268,0.149606,0.488189][38.1078,-9.02672,0][-2.95014,-0.927956,0.983382][-0.944882,0,0.322835][38.0615,-9.05588,0][-2.85948,-0.927956,1.16878][-0.897638,0,0.440945][38.073,-9.05588,0][-2.58744,-0.461498,1.72497][-0.858268,0.149606,0.488189][38.1078,-9.02672,0][-2.95014,-0.927956,0.983382][-0.944882,0,0.322835][38.0615,-9.05588,0][-2.58744,-0.461498,1.72497][-0.858268,0.149606,0.488189][38.1078,-9.02672,0][-2.95014,-0.461498,0.983382][-0.952756,0.165354,0.23622][38.0615,-9.02672,0][9.30076e-08,-0.927956,3.10972][0.0393701,0,1][38,-9.05588,0][0.245844,-0.927956,3.06984][0.15748,0,0.984252][38.0154,-9.05588,0][0.983382,-0.461498,2.95014][0.23622,0.165354,0.952756][38.0615,-9.02672,0][9.30076e-08,-0.927956,3.10972][0.0393701,0,1][38,-9.05588,0][0.983382,-0.461498,2.95014][0.23622,0.165354,0.952756][38.0615,-9.02672,0][9.24844e-08,-0.461498,3.10972][-0.0472441,0.173228,0.984252][38,-9.02672,0][-0.737538,-0.927956,2.99004][-0.15748,0,0.984252][37.9539,-9.05588,0][9.30076e-08,-0.927956,3.10972][0.0393701,0,1][38,-9.05588,0][9.24844e-08,-0.461498,3.10972][-0.0472441,0.173228,0.984252][38,-9.02672,0][-2.49032,-0.927956,1.84345][-0.771654,0,0.637795][38.1152,-9.05588,0][-2.1989,-0.927956,2.1989][-0.692913,0,0.724409][38.1374,-9.05588,0][-2.1989,-0.461498,2.1989][-0.724409,0.11811,0.677165][38.1374,-9.02672,0][-2.58744,-0.927956,1.72497][-0.834646,0,0.551181][38.1078,-9.05588,0][-2.49032,-0.927956,1.84345][-0.771654,0,0.637795][38.1152,-9.05588,0][-2.1989,-0.461498,2.1989][-0.724409,0.11811,0.677165][38.1374,-9.02672,0][-2.58744,-0.927956,1.72497][-0.834646,0,0.551181][38.1078,-9.05588,0][-2.1989,-0.461498,2.1989][-0.724409,0.11811,0.677165][38.1374,-9.02672,0][-2.58744,-0.461498,1.72497][-0.858268,0.149606,0.488189][38.1078,-9.02672,0][-0.983382,-0.927956,2.95014][-0.251969,0,0.968504][37.9385,-9.05588,0][-0.737538,-0.927956,2.99004][-0.15748,0,0.984252][37.9539,-9.05588,0][9.24844e-08,-0.461498,3.10972][-0.0472441,0.173228,0.984252][38,-9.02672,0][-0.983382,-0.927956,2.95014][-0.251969,0,0.968504][37.9385,-9.05588,0][9.24844e-08,-0.461498,3.10972][-0.0472441,0.173228,0.984252][38,-9.02672,0][-0.983382,-0.461498,2.95014][-0.330709,0.15748,0.929134][37.9385,-9.02672,0][-1.53957,-0.927956,2.67812][-0.440945,0,0.897638][37.9038,-9.05588,0][-0.983382,-0.927956,2.95014][-0.251969,0,0.968504][37.9385,-9.05588,0][-0.983382,-0.461498,2.95014][-0.330709,0.15748,0.929134][37.9385,-9.02672,0][-2.08042,-0.927956,2.29604][-0.637795,0,0.771654][37.87,-9.05588,0][-1.72497,-0.927956,2.58744][-0.503937,0,0.866142][37.8922,-9.05588,0][-1.72497,-0.461498,2.58744][-0.551181,0.125984,0.826772][37.8922,-9.02672,0][-2.1989,-0.927956,2.1989][-0.692913,0,0.724409][37.8626,-9.05588,0][-2.08042,-0.927956,2.29604][-0.637795,0,0.771654][37.87,-9.05588,0][-1.72497,-0.461498,2.58744][-0.551181,0.125984,0.826772][37.8922,-9.02672,0][-2.1989,-0.927956,2.1989][-0.692913,0,0.724409][37.8626,-9.05588,0][-1.72497,-0.461498,2.58744][-0.551181,0.125984,0.826772][37.8922,-9.02672,0][-2.1989,-0.461498,2.1989][-0.724409,0.11811,0.677165][37.8626,-9.02672,0][-1.72497,-0.927956,2.58744][-0.503937,0,0.866142][37.8922,-9.05588,0][-1.53957,-0.927956,2.67812][-0.440945,0,0.897638][37.9038,-9.05588,0][-0.983382,-0.461498,2.95014][-0.330709,0.15748,0.929134][37.9385,-9.02672,0][-1.72497,-0.927956,2.58744][-0.503937,0,0.866142][37.8922,-9.05588,0][-0.983382,-0.461498,2.95014][-0.330709,0.15748,0.929134][37.9385,-9.02672,0][-1.72497,-0.461498,2.58744][-0.551181,0.125984,0.826772][37.8922,-9.02672,0][1.7954,0.301548,-1.7954][0.362205,0.850394,-0.370079][37.8878,-9.11221,0][1.98899,0.383822,-1.32599][0.377953,0.88189,-0.275591][37.8757,-9.08287,0][1.98899,0.102049,-1.98899][0.472441,0.740157,-0.472441][37.8757,-9.12431,0][1.98899,0.383822,-1.32599][0.377953,0.88189,-0.275591][37.8757,-9.08287,0][1.7954,0.301548,-1.7954][0.362205,0.850394,-0.370079][37.8878,-9.11221,0][1.32599,0.383822,-1.98899][0.251969,0.889764,-0.377953][37.9171,-9.12431,0][1.98899,0.102049,-1.98899][0.472441,0.740157,-0.472441][37.8757,-9.12431,0][1.98899,0.383822,-1.32599][0.377953,0.88189,-0.275591][37.8757,-9.08287,0][2.26266,0.179589,-1.50844][0.527559,0.779528,-0.330709][37.8586,-9.09428,0][1.7954,0.301548,-1.7954][0.362205,0.850394,-0.370079][37.8878,-9.11221,0][1.98899,0.102049,-1.98899][0.472441,0.740157,-0.472441][37.8757,-9.12431,0][1.50844,0.179589,-2.26266][0.330709,0.771654,-0.551181][37.9057,-9.14142,0][1.32599,0.383822,-1.98899][0.251969,0.889764,-0.377953][37.9171,-9.12431,0][1.7954,0.301548,-1.7954][0.362205,0.850394,-0.370079][37.8878,-9.11221,0][1.50844,0.179589,-2.26266][0.330709,0.771654,-0.551181][37.9057,-9.14142,0][1.98899,0.383822,-1.32599][0.377953,0.88189,-0.275591][37.8757,-9.08287,0][1.32599,0.383822,-1.98899][0.251969,0.889764,-0.377953][37.9171,-9.12431,0][1.50844,0.500132,-1.50844][0.251969,0.937008,-0.251969][37.9057,-9.09428,0][2.26266,0.179589,-1.50844][0.527559,0.779528,-0.330709][37.8586,-9.09428,0][1.98899,0.383822,-1.32599][0.377953,0.88189,-0.275591][37.8757,-9.08287,0][2.14026,0.448112,-0.71342][0.385827,0.905512,-0.15748][37.8662,-9.04459,0][1.98899,0.102049,-1.98899][0.472441,0.740157,-0.472441][37.8757,-9.12431,0][2.26266,0.179589,-1.50844][0.527559,0.779528,-0.330709][37.8586,-9.09428,0][2.14026,-0.158294,-2.14026][0.622047,0.480315,-0.622047][37.8662,-9.13377,0][1.50844,0.179589,-2.26266][0.330709,0.771654,-0.551181][37.9057,-9.14142,0][1.98899,0.102049,-1.98899][0.472441,0.740157,-0.472441][37.8757,-9.12431,0][1.66222,-0.108276,-2.49332][0.440945,0.496063,-0.748031][37.8961,-9.15583,0][1.32599,0.383822,-1.98899][0.251969,0.889764,-0.377953][37.9171,-9.12431,0][1.50844,0.179589,-2.26266][0.330709,0.771654,-0.551181][37.9057,-9.14142,0][0.83111,0.244946,-2.49332][0.165354,0.80315,-0.574803][37.9481,-9.15583,0][1.50844,0.500132,-1.50844][0.251969,0.937008,-0.251969][37.9057,-9.09428,0][1.32599,0.383822,-1.98899][0.251969,0.889764,-0.377953][37.9171,-9.12431,0][0.71342,0.448114,-2.14026][0.125984,0.913386,-0.385827][37.9554,-9.13377,0][1.98899,0.383822,-1.32599][0.377953,0.88189,-0.275591][37.8757,-9.08287,0][1.50844,0.500132,-1.50844][0.251969,0.937008,-0.251969][37.9057,-9.09428,0][2.14026,0.448112,-0.71342][0.385827,0.905512,-0.15748][37.8662,-9.04459,0][2.26266,0.179589,-1.50844][0.527559,0.779528,-0.330709][37.8586,-9.09428,0][2.14026,0.448112,-0.71342][0.385827,0.905512,-0.15748][37.8662,-9.04459,0][2.49332,0.244946,-0.83111][0.559055,0.811024,-0.181102][37.8442,-9.05194,0][2.14026,-0.158294,-2.14026][0.622047,0.480315,-0.622047][37.8662,-9.13377,0][2.26266,0.179589,-1.50844][0.527559,0.779528,-0.330709][37.8586,-9.09428,0][2.49332,-0.108276,-1.66222][0.716535,0.543307,-0.440945][37.8442,-9.10389,0][1.98899,0.102049,-1.98899][0.472441,0.740157,-0.472441][37.8757,-9.12431,0][2.14026,-0.158294,-2.14026][0.622047,0.480315,-0.622047][37.8662,-9.13377,0][1.66222,-0.108276,-2.49332][0.440945,0.496063,-0.748031][37.8961,-9.15583,0][1.50844,0.179589,-2.26266][0.330709,0.771654,-0.551181][37.9057,-9.14142,0][1.66222,-0.108276,-2.49332][0.440945,0.496063,-0.748031][37.8961,-9.15583,0][0.937618,-0.06301,-2.81286][0.228346,0.543307,-0.811024][37.9414,-9.1758,0][0.83111,0.244946,-2.49332][0.165354,0.80315,-0.574803][37.9481,-9.15583,0][1.50844,0.179589,-2.26266][0.330709,0.771654,-0.551181][37.9057,-9.14142,0][0.937618,-0.06301,-2.81286][0.228346,0.543307,-0.811024][37.9414,-9.1758,0][1.32599,0.383822,-1.98899][0.251969,0.889764,-0.377953][37.9171,-9.12431,0][0.83111,0.244946,-2.49332][0.165354,0.80315,-0.574803][37.9481,-9.15583,0][0.71342,0.448114,-2.14026][0.125984,0.913386,-0.385827][37.9554,-9.13377,0][1.50844,0.500132,-1.50844][0.251969,0.937008,-0.251969][37.9057,-9.09428,0][0.71342,0.448114,-2.14026][0.125984,0.913386,-0.385827][37.9554,-9.13377,0][0.83111,0.598168,-1.66222][0.133858,0.96063,-0.251969][37.9481,-9.10389,0][2.14026,0.448112,-0.71342][0.385827,0.905512,-0.15748][37.8662,-9.04459,0][1.50844,0.500132,-1.50844][0.251969,0.937008,-0.251969][37.9057,-9.09428,0][1.66222,0.598166,-0.83111][0.251969,0.96063,-0.133858][37.8961,-9.05194,0][2.49332,0.244946,-0.83111][0.559055,0.811024,-0.181102][37.8442,-9.05194,0][2.14026,0.448112,-0.71342][0.385827,0.905512,-0.15748][37.8662,-9.04459,0][2.1989,0.473038,5.31716e-08][0.393701,0.92126,-0.023622][37.8626,-9,0][2.26266,0.179589,-1.50844][0.527559,0.779528,-0.330709][37.8586,-9.09428,0][2.49332,0.244946,-0.83111][0.559055,0.811024,-0.181102][37.8442,-9.05194,0][2.49332,-0.108276,-1.66222][0.716535,0.543307,-0.440945][37.8442,-9.10389,0][2.14026,-0.158294,-2.14026][0.622047,0.480315,-0.622047][38.1338,-9.00777,0][2.49332,-0.108276,-1.66222][0.716535,0.543307,-0.440945][38.1039,-9.00465,0][2.1989,-0.461498,-2.1989][0.724409,0.11811,-0.677165][38.1374,-9.02672,0][1.66222,-0.108276,-2.49332][0.440945,0.496063,-0.748031][37.8961,-9.00465,0][2.14026,-0.158294,-2.14026][0.622047,0.480315,-0.622047][37.8662,-9.00777,0][1.72497,-0.461498,-2.58744][0.551181,0.125984,-0.826772][37.8922,-9.02672,0][0.937618,-0.06301,-2.81286][0.228346,0.543307,-0.811024][37.9414,-9.00182,0][1.66222,-0.108276,-2.49332][0.440945,0.496063,-0.748031][37.8961,-9.00465,0][0.983382,-0.461498,-2.95014][0.330709,0.15748,-0.929134][37.9385,-9.02672,0][0.83111,0.244946,-2.49332][0.165354,0.80315,-0.574803][37.9481,-9.15583,0][0.937618,-0.06301,-2.81286][0.228346,0.543307,-0.811024][37.9414,-9.1758,0][2.54048e-07,-0.0435602,-2.95014][-0.00787402,0.566929,-0.818898][38,-9.18438,0][0.71342,0.448114,-2.14026][0.125984,0.913386,-0.385827][37.9554,-9.13377,0][0.83111,0.244946,-2.49332][0.165354,0.80315,-0.574803][37.9481,-9.15583,0][3.12774e-07,0.271614,-2.58744][-0.015748,0.818898,-0.574803][38,-9.16172,0][0.83111,0.598168,-1.66222][0.133858,0.96063,-0.251969][37.9481,-9.10389,0][0.71342,0.448114,-2.14026][0.125984,0.913386,-0.385827][37.9554,-9.13377,0][1.91784e-07,0.473038,-2.1989][0,0.92126,-0.393701][38,-9.13743,0][1.50844,0.500132,-1.50844][0.251969,0.937008,-0.251969][37.9057,-9.09428,0][0.83111,0.598168,-1.66222][0.133858,0.96063,-0.251969][37.9481,-9.10389,0][1.66222,0.598166,-0.83111][0.251969,0.96063,-0.133858][37.8961,-9.05194,0][2.14026,0.448112,-0.71342][0.385827,0.905512,-0.15748][37.8662,-9.04459,0][1.66222,0.598166,-0.83111][0.251969,0.96063,-0.133858][37.8961,-9.05194,0][2.1989,0.473038,5.31716e-08][0.393701,0.92126,-0.023622][37.8626,-9,0][2.49332,0.244946,-0.83111][0.559055,0.811024,-0.181102][37.8442,-9.05194,0][2.1989,0.473038,5.31716e-08][0.393701,0.92126,-0.023622][37.8626,-9,0][2.58744,0.271612,-5.94884e-08][0.574803,0.818898,-0.015748][37.8383,-9,0][2.49332,-0.108276,-1.66222][0.716535,0.543307,-0.440945][37.8442,-9.10389,0][2.49332,0.244946,-0.83111][0.559055,0.811024,-0.181102][37.8442,-9.05194,0][2.81286,-0.0630102,-0.937618][0.787402,0.566929,-0.244094][37.8242,-9.0586,0][2.1989,-0.461498,-2.1989][0.724409,0.11811,-0.677165][38.1374,-9.02672,0][2.49332,-0.108276,-1.66222][0.716535,0.543307,-0.440945][38.1039,-9.00465,0][2.58744,-0.461498,-1.72497][0.858268,0.149606,-0.488189][38.1078,-9.02672,0][2.14026,-0.158294,-2.14026][0.622047,0.480315,-0.622047][37.8662,-9.00777,0][2.1989,-0.461498,-2.1989][0.724409,0.11811,-0.677165][37.8626,-9.02672,0][1.72497,-0.461498,-2.58744][0.551181,0.125984,-0.826772][37.8922,-9.02672,0][1.66222,-0.108276,-2.49332][0.440945,0.496063,-0.748031][37.8961,-9.00465,0][1.72497,-0.461498,-2.58744][0.551181,0.125984,-0.826772][37.8922,-9.02672,0][0.983382,-0.461498,-2.95014][0.330709,0.15748,-0.929134][37.9385,-9.02672,0][0.937618,-0.06301,-2.81286][0.228346,0.543307,-0.811024][37.9414,-9.00182,0][0.983382,-0.461498,-2.95014][0.330709,0.15748,-0.929134][37.9385,-9.02672,0][1.00989e-07,-0.461498,-3.10972][0.0472441,0.173228,-0.984252][38,-9.02672,0][2.54048e-07,-0.0435602,-2.95014][-0.00787402,0.566929,-0.818898][38,-9.0006,0][0.937618,-0.06301,-2.81286][0.228346,0.543307,-0.811024][37.9414,-9.00182,0][1.00989e-07,-0.461498,-3.10972][0.0472441,0.173228,-0.984252][38,-9.02672,0][0.83111,0.244946,-2.49332][0.165354,0.80315,-0.574803][37.9481,-9.15583,0][2.54048e-07,-0.0435602,-2.95014][-0.00787402,0.566929,-0.818898][38,-9.18438,0][3.12774e-07,0.271614,-2.58744][-0.015748,0.818898,-0.574803][38,-9.16172,0][0.71342,0.448114,-2.14026][0.125984,0.913386,-0.385827][37.9554,-9.13377,0][3.12774e-07,0.271614,-2.58744][-0.015748,0.818898,-0.574803][38,-9.16172,0][1.91784e-07,0.473038,-2.1989][0,0.92126,-0.393701][38,-9.13743,0][0.83111,0.598168,-1.66222][0.133858,0.96063,-0.251969][37.9481,-9.10389,0][1.91784e-07,0.473038,-2.1989][0,0.92126,-0.393701][38,-9.13743,0][2.44388e-07,0.638168,-1.72497][0.00787402,0.968504,-0.244094][38,-9.10781,0][1.66222,0.598166,-0.83111][0.251969,0.96063,-0.133858][37.8961,-9.05194,0][0.83111,0.598168,-1.66222][0.133858,0.96063,-0.251969][37.9481,-9.10389,0][0.937618,0.733966,-0.937618][0.125984,0.984252,-0.125984][37.9414,-9.0586,0][2.1989,0.473038,5.31716e-08][0.393701,0.92126,-0.023622][37.8626,-9,0][1.66222,0.598166,-0.83111][0.251969,0.96063,-0.133858][37.8961,-9.05194,0][1.72497,0.638168,-2.64524e-07][0.244094,0.968504,-0.00787402][37.8922,-9,0][2.58744,0.271612,-5.94884e-08][0.574803,0.818898,-0.015748][37.8383,-9,0][2.1989,0.473038,5.31716e-08][0.393701,0.92126,-0.023622][37.8626,-9,0][2.14026,0.448114,0.71342][0.385827,0.913386,0.102362][37.8662,-8.95541,0][2.49332,0.244946,-0.83111][0.559055,0.811024,-0.181102][37.8442,-9.05194,0][2.58744,0.271612,-5.94884e-08][0.574803,0.818898,-0.015748][37.8383,-9,0][2.81286,-0.0630102,-0.937618][0.787402,0.566929,-0.244094][37.8242,-9.0586,0][2.49332,-0.108276,-1.66222][0.716535,0.543307,-0.440945][38.1039,-9.00465,0][2.81286,-0.0630102,-0.937618][0.787402,0.566929,-0.244094][38.0586,-9.00182,0][2.58744,-0.461498,-1.72497][0.858268,0.149606,-0.488189][38.1078,-9.02672,0][2.54048e-07,-0.0435602,-2.95014][-0.00787402,0.566929,-0.818898][38,-9.0006,0][1.00989e-07,-0.461498,-3.10972][0.0472441,0.173228,-0.984252][38,-9.02672,0][-0.983382,-0.461498,-2.95014][-0.23622,0.165354,-0.952756][38.0615,-9.02672,0][3.12774e-07,0.271614,-2.58744][-0.015748,0.818898,-0.574803][38,-9.16172,0][2.54048e-07,-0.0435602,-2.95014][-0.00787402,0.566929,-0.818898][38,-9.18438,0][-0.937618,-0.06301,-2.81286][-0.244094,0.566929,-0.787402][38.0586,-9.1758,0][1.91784e-07,0.473038,-2.1989][0,0.92126,-0.393701][38,-9.13743,0][3.12774e-07,0.271614,-2.58744][-0.015748,0.818898,-0.574803][38,-9.16172,0][-0.83111,0.244946,-2.49332][-0.181102,0.811024,-0.559055][38.0519,-9.15583,0][2.44388e-07,0.638168,-1.72497][0.00787402,0.968504,-0.244094][38,-9.10781,0][1.91784e-07,0.473038,-2.1989][0,0.92126,-0.393701][38,-9.13743,0][-0.71342,0.448114,-2.14026][-0.125984,0.913386,-0.385827][38.0446,-9.13377,0][0.83111,0.598168,-1.66222][0.133858,0.96063,-0.251969][37.9481,-9.10389,0][2.44388e-07,0.638168,-1.72497][0.00787402,0.968504,-0.244094][38,-9.10781,0][0.937618,0.733966,-0.937618][0.125984,0.984252,-0.125984][37.9414,-9.0586,0][1.66222,0.598166,-0.83111][0.251969,0.96063,-0.133858][37.8961,-9.05194,0][0.937618,0.733966,-0.937618][0.125984,0.984252,-0.125984][37.9414,-9.0586,0][1.72497,0.638168,-2.64524e-07][0.244094,0.968504,-0.00787402][37.8922,-9,0][2.1989,0.473038,5.31716e-08][0.393701,0.92126,-0.023622][37.8626,-9,0][1.72497,0.638168,-2.64524e-07][0.244094,0.968504,-0.00787402][37.8922,-9,0][2.14026,0.448114,0.71342][0.385827,0.913386,0.102362][37.8662,-8.95541,0][2.58744,0.271612,-5.94884e-08][0.574803,0.818898,-0.015748][37.8383,-9,0][2.14026,0.448114,0.71342][0.385827,0.913386,0.102362][37.8662,-8.95541,0][2.49332,0.244946,0.83111][0.574803,0.80315,0.165354][37.8442,-8.94806,0][2.81286,-0.0630102,-0.937618][0.787402,0.566929,-0.244094][37.8242,-9.0586,0][2.58744,0.271612,-5.94884e-08][0.574803,0.818898,-0.015748][37.8383,-9,0][2.95014,-0.0435606,1.25899e-07][0.818898,0.566929,-0.00787402][37.8156,-9,0][2.58744,-0.461498,-1.72497][0.858268,0.149606,-0.488189][38.1078,-9.02672,0][2.81286,-0.0630102,-0.937618][0.787402,0.566929,-0.244094][38.0586,-9.00182,0][2.95014,-0.461498,-0.983382][0.952756,0.165354,-0.23622][38.0615,-9.02672,0][2.54048e-07,-0.0435602,-2.95014][-0.00787402,0.566929,-0.818898][38,-9.0006,0][-0.983382,-0.461498,-2.95014][-0.23622,0.165354,-0.952756][38.0615,-9.02672,0][-0.937618,-0.06301,-2.81286][-0.244094,0.566929,-0.787402][38.0586,-9.00182,0][3.12774e-07,0.271614,-2.58744][-0.015748,0.818898,-0.574803][38,-9.16172,0][-0.937618,-0.06301,-2.81286][-0.244094,0.566929,-0.787402][38.0586,-9.1758,0][-0.83111,0.244946,-2.49332][-0.181102,0.811024,-0.559055][38.0519,-9.15583,0][1.91784e-07,0.473038,-2.1989][0,0.92126,-0.393701][38,-9.13743,0][-0.83111,0.244946,-2.49332][-0.181102,0.811024,-0.559055][38.0519,-9.15583,0][-0.71342,0.448114,-2.14026][-0.125984,0.913386,-0.385827][38.0446,-9.13377,0][2.44388e-07,0.638168,-1.72497][0.00787402,0.968504,-0.244094][38,-9.10781,0][-0.71342,0.448114,-2.14026][-0.125984,0.913386,-0.385827][38.0446,-9.13377,0][-0.83111,0.598168,-1.66222][-0.11811,0.96063,-0.244094][38.0519,-9.10389,0][0.937618,0.733966,-0.937618][0.125984,0.984252,-0.125984][37.9414,-9.0586,0][2.44388e-07,0.638168,-1.72497][0.00787402,0.968504,-0.244094][38,-9.10781,0][1.81972e-07,0.792314,-0.983382][0.00787402,0.992126,-0.125984][38,-9.06146,0][1.72497,0.638168,-2.64524e-07][0.244094,0.968504,-0.00787402][37.8922,-9,0][0.937618,0.733966,-0.937618][0.125984,0.984252,-0.125984][37.9414,-9.0586,0][0.983382,0.792314,-2.93536e-07][0.125984,0.992126,-0.00787402][37.9385,-9,0][2.14026,0.448114,0.71342][0.385827,0.913386,0.102362][37.8662,-8.95541,0][1.72497,0.638168,-2.64524e-07][0.244094,0.968504,-0.00787402][37.8922,-9,0][1.66222,0.598168,0.83111][0.244094,0.96063,0.11811][37.8961,-8.94806,0][2.49332,0.244946,0.83111][0.574803,0.80315,0.165354][37.8442,-8.94806,0][2.14026,0.448114,0.71342][0.385827,0.913386,0.102362][37.8662,-8.95541,0][1.98899,0.383822,1.32599][0.377953,0.897638,0.23622][37.8757,-8.91713,0][2.58744,0.271612,-5.94884e-08][0.574803,0.818898,-0.015748][37.8383,-9,0][2.49332,0.244946,0.83111][0.574803,0.80315,0.165354][37.8442,-8.94806,0][2.95014,-0.0435606,1.25899e-07][0.818898,0.566929,-0.00787402][37.8156,-9,0][2.81286,-0.0630102,-0.937618][0.787402,0.566929,-0.244094][38.0586,-9.00182,0][2.95014,-0.0435606,1.25899e-07][0.818898,0.566929,-0.00787402][38,-9.0006,0][2.95014,-0.461498,-0.983382][0.952756,0.165354,-0.23622][38.0615,-9.02672,0][-0.937618,-0.06301,-2.81286][-0.244094,0.566929,-0.787402][38.0586,-9.00182,0][-0.983382,-0.461498,-2.95014][-0.23622,0.165354,-0.952756][38.0615,-9.02672,0][-1.72497,-0.461498,-2.58744][-0.488189,0.149606,-0.858268][38.1078,-9.02672,0][-0.83111,0.244946,-2.49332][-0.181102,0.811024,-0.559055][38.0519,-9.15583,0][-0.937618,-0.06301,-2.81286][-0.244094,0.566929,-0.787402][38.0586,-9.1758,0][-1.66222,-0.108276,-2.49332][-0.440945,0.543307,-0.716535][38.1039,-9.15583,0][-0.71342,0.448114,-2.14026][-0.125984,0.913386,-0.385827][38.0446,-9.13377,0][-0.83111,0.244946,-2.49332][-0.181102,0.811024,-0.559055][38.0519,-9.15583,0][-1.50844,0.179589,-2.26266][-0.330709,0.779528,-0.527559][38.0943,-9.14142,0][-0.83111,0.598168,-1.66222][-0.11811,0.96063,-0.244094][38.0519,-9.10389,0][-0.71342,0.448114,-2.14026][-0.125984,0.913386,-0.385827][38.0446,-9.13377,0][-1.32599,0.383822,-1.98899][-0.251969,0.889764,-0.377953][38.0829,-9.12431,0][2.44388e-07,0.638168,-1.72497][0.00787402,0.968504,-0.244094][38,-9.10781,0][-0.83111,0.598168,-1.66222][-0.11811,0.96063,-0.244094][38.0519,-9.10389,0][1.81972e-07,0.792314,-0.983382][0.00787402,0.992126,-0.125984][38,-9.06146,0][0.937618,0.733966,-0.937618][0.125984,0.984252,-0.125984][37.9414,-9.0586,0][1.81972e-07,0.792314,-0.983382][0.00787402,0.992126,-0.125984][38,-9.06146,0][0.983382,0.792314,-2.93536e-07][0.125984,0.992126,-0.00787402][37.9385,-9,0][1.72497,0.638168,-2.64524e-07][0.244094,0.968504,-0.00787402][37.8922,-9,0][0.983382,0.792314,-2.93536e-07][0.125984,0.992126,-0.00787402][37.9385,-9,0][1.66222,0.598168,0.83111][0.244094,0.96063,0.11811][37.8961,-8.94806,0][2.14026,0.448114,0.71342][0.385827,0.913386,0.102362][37.8662,-8.95541,0][1.66222,0.598168,0.83111][0.244094,0.96063,0.11811][37.8961,-8.94806,0][1.98899,0.383822,1.32599][0.377953,0.897638,0.23622][37.8757,-8.91713,0][2.49332,0.244946,0.83111][0.574803,0.80315,0.165354][37.8442,-8.94806,0][1.98899,0.383822,1.32599][0.377953,0.897638,0.23622][37.8757,-8.91713,0][2.26266,0.179589,1.50844][0.551181,0.771654,0.330709][37.8586,-8.90572,0][2.95014,-0.0435606,1.25899e-07][0.818898,0.566929,-0.00787402][37.8156,-9,0][2.49332,0.244946,0.83111][0.574803,0.80315,0.165354][37.8442,-8.94806,0][2.81286,-0.0630098,0.937618][0.811024,0.543307,0.228346][37.8242,-8.9414,0][2.95014,-0.461498,-0.983382][0.952756,0.165354,-0.23622][38.0615,-9.02672,0][2.95014,-0.0435606,1.25899e-07][0.818898,0.566929,-0.00787402][38,-9.0006,0][3.10972,-0.461498,-2.96444e-07][0.984252,0.173228,0.0472441][38,-9.02672,0][-0.937618,-0.06301,-2.81286][-0.244094,0.566929,-0.787402][38.0586,-9.00182,0][-1.72497,-0.461498,-2.58744][-0.488189,0.149606,-0.858268][38.1078,-9.02672,0][-1.66222,-0.108276,-2.49332][-0.440945,0.543307,-0.716535][38.1039,-9.00465,0][-0.83111,0.244946,-2.49332][-0.181102,0.811024,-0.559055][38.0519,-9.15583,0][-1.66222,-0.108276,-2.49332][-0.440945,0.543307,-0.716535][38.1039,-9.15583,0][-1.50844,0.179589,-2.26266][-0.330709,0.779528,-0.527559][38.0943,-9.14142,0][-0.71342,0.448114,-2.14026][-0.125984,0.913386,-0.385827][38.0446,-9.13377,0][-1.50844,0.179589,-2.26266][-0.330709,0.779528,-0.527559][38.0943,-9.14142,0][-1.32599,0.383822,-1.98899][-0.251969,0.889764,-0.377953][38.0829,-9.12431,0][-0.83111,0.598168,-1.66222][-0.11811,0.96063,-0.244094][38.0519,-9.10389,0][-1.32599,0.383822,-1.98899][-0.251969,0.889764,-0.377953][38.0829,-9.12431,0][-1.50844,0.500132,-1.50844][-0.23622,0.944882,-0.23622][38.0943,-9.09428,0][1.81972e-07,0.792314,-0.983382][0.00787402,0.992126,-0.125984][38,-9.06146,0][-0.83111,0.598168,-1.66222][-0.11811,0.96063,-0.244094][38.0519,-9.10389,0][-0.937618,0.733966,-0.937618][-0.11811,0.984252,-0.11811][38.0586,-9.0586,0][0.983382,0.792314,-2.93536e-07][0.125984,0.992126,-0.00787402][37.9385,-9,0][1.81972e-07,0.792314,-0.983382][0.00787402,0.992126,-0.125984][38,-9.06146,0][2.24196e-07,0.860136,-2.98158e-07][0,1,0][38,-9,0][1.66222,0.598168,0.83111][0.244094,0.96063,0.11811][37.8961,-8.94806,0][0.983382,0.792314,-2.93536e-07][0.125984,0.992126,-0.00787402][37.9385,-9,0][0.937618,0.733966,0.937618][0.11811,0.984252,0.11811][37.9414,-8.9414,0][1.98899,0.383822,1.32599][0.377953,0.897638,0.23622][37.8757,-8.91713,0][1.66222,0.598168,0.83111][0.244094,0.96063,0.11811][37.8961,-8.94806,0][1.50844,0.500132,1.50844][0.23622,0.944882,0.23622][37.9057,-8.90572,0][2.26266,0.179589,1.50844][0.551181,0.771654,0.330709][37.8586,-8.90572,0][1.98899,0.383822,1.32599][0.377953,0.897638,0.23622][37.8757,-8.91713,0][1.7954,0.301548,1.7954][0.362205,0.858268,0.354331][37.8878,-8.88779,0][2.49332,0.244946,0.83111][0.574803,0.80315,0.165354][37.8442,-8.94806,0][2.26266,0.179589,1.50844][0.551181,0.771654,0.330709][37.8586,-8.90572,0][2.81286,-0.0630098,0.937618][0.811024,0.543307,0.228346][37.8242,-8.9414,0][2.95014,-0.0435606,1.25899e-07][0.818898,0.566929,-0.00787402][38,-9.0006,0][2.81286,-0.0630098,0.937618][0.811024,0.543307,0.228346][37.9414,-9.00182,0][3.10972,-0.461498,-2.96444e-07][0.984252,0.173228,0.0472441][38,-9.02672,0][-1.66222,-0.108276,-2.49332][-0.440945,0.543307,-0.716535][38.1039,-9.00465,0][-1.72497,-0.461498,-2.58744][-0.488189,0.149606,-0.858268][38.1078,-9.02672,0][-2.1989,-0.461498,-2.1989][-0.677165,0.11811,-0.724409][38.1374,-9.02672,0][-1.50844,0.179589,-2.26266][-0.330709,0.779528,-0.527559][38.0943,-9.14142,0][-1.66222,-0.108276,-2.49332][-0.440945,0.543307,-0.716535][38.1039,-9.15583,0][-2.14026,-0.158294,-2.14026][-0.622047,0.480315,-0.622047][38.1338,-9.13377,0][-1.32599,0.383822,-1.98899][-0.251969,0.889764,-0.377953][38.0829,-9.12431,0][-1.50844,0.179589,-2.26266][-0.330709,0.779528,-0.527559][38.0943,-9.14142,0][-1.98899,0.102049,-1.98899][-0.472441,0.740157,-0.472441][38.1243,-9.12431,0][-1.50844,0.500132,-1.50844][-0.23622,0.944882,-0.23622][38.0943,-9.09428,0][-1.32599,0.383822,-1.98899][-0.251969,0.889764,-0.377953][38.0829,-9.12431,0][-1.7954,0.301548,-1.7954][-0.362205,0.858268,-0.354331][38.1122,-9.11221,0][-0.83111,0.598168,-1.66222][-0.11811,0.96063,-0.244094][38.0519,-9.10389,0][-1.50844,0.500132,-1.50844][-0.23622,0.944882,-0.23622][38.0943,-9.09428,0][-0.937618,0.733966,-0.937618][-0.11811,0.984252,-0.11811][38.0586,-9.0586,0][1.81972e-07,0.792314,-0.983382][0.00787402,0.992126,-0.125984][38,-9.06146,0][-0.937618,0.733966,-0.937618][-0.11811,0.984252,-0.11811][38.0586,-9.0586,0][2.24196e-07,0.860136,-2.98158e-07][0,1,0][38,-9,0][0.983382,0.792314,-2.93536e-07][0.125984,0.992126,-0.00787402][37.9385,-9,0][2.24196e-07,0.860136,-2.98158e-07][0,1,0][38,-9,0][0.937618,0.733966,0.937618][0.11811,0.984252,0.11811][37.9414,-8.9414,0][1.66222,0.598168,0.83111][0.244094,0.96063,0.11811][37.8961,-8.94806,0][0.937618,0.733966,0.937618][0.11811,0.984252,0.11811][37.9414,-8.9414,0][1.50844,0.500132,1.50844][0.23622,0.944882,0.23622][37.9057,-8.90572,0][1.98899,0.383822,1.32599][0.377953,0.897638,0.23622][37.8757,-8.91713,0][1.50844,0.500132,1.50844][0.23622,0.944882,0.23622][37.9057,-8.90572,0][1.7954,0.301548,1.7954][0.362205,0.858268,0.354331][37.8878,-8.88779,0][2.26266,0.179589,1.50844][0.551181,0.771654,0.330709][37.8586,-8.90572,0][1.7954,0.301548,1.7954][0.362205,0.858268,0.354331][37.8878,-8.88779,0][1.98899,0.102049,1.98899][0.472441,0.740157,0.472441][37.8757,-8.87569,0][2.81286,-0.0630098,0.937618][0.811024,0.543307,0.228346][37.8242,-8.9414,0][2.26266,0.179589,1.50844][0.551181,0.771654,0.330709][37.8586,-8.90572,0][2.49332,-0.108276,1.66222][0.748031,0.496063,0.440945][37.8442,-8.89611,0][3.10972,-0.461498,-2.96444e-07][0.984252,0.173228,0.0472441][38,-9.02672,0][2.81286,-0.0630098,0.937618][0.811024,0.543307,0.228346][37.9414,-9.00182,0][2.95014,-0.461498,0.983382][0.929134,0.15748,0.330709][37.9385,-9.02672,0][-1.66222,-0.108276,-2.49332][-0.440945,0.543307,-0.716535][38.1039,-9.00465,0][-2.1989,-0.461498,-2.1989][-0.677165,0.11811,-0.724409][38.1374,-9.02672,0][-2.14026,-0.158294,-2.14026][-0.622047,0.480315,-0.622047][38.1338,-9.00777,0][-1.50844,0.179589,-2.26266][-0.330709,0.779528,-0.527559][38.0943,-9.14142,0][-2.14026,-0.158294,-2.14026][-0.622047,0.480315,-0.622047][38.1338,-9.13377,0][-1.98899,0.102049,-1.98899][-0.472441,0.740157,-0.472441][38.1243,-9.12431,0][-1.32599,0.383822,-1.98899][-0.251969,0.889764,-0.377953][38.0829,-9.12431,0][-1.98899,0.102049,-1.98899][-0.472441,0.740157,-0.472441][38.1243,-9.12431,0][-1.7954,0.301548,-1.7954][-0.362205,0.858268,-0.354331][38.1122,-9.11221,0][-1.50844,0.500132,-1.50844][-0.23622,0.944882,-0.23622][38.0943,-9.09428,0][-1.7954,0.301548,-1.7954][-0.362205,0.858268,-0.354331][38.1122,-9.11221,0][-1.98899,0.383822,-1.32599][-0.377953,0.897638,-0.23622][38.1243,-9.08287,0][-0.937618,0.733966,-0.937618][-0.11811,0.984252,-0.11811][38.0586,-9.0586,0][-1.50844,0.500132,-1.50844][-0.23622,0.944882,-0.23622][38.0943,-9.09428,0][-1.66222,0.598168,-0.83111][-0.244094,0.96063,-0.11811][38.1039,-9.05194,0][2.24196e-07,0.860136,-2.98158e-07][0,1,0][38,-9,0][-0.937618,0.733966,-0.937618][-0.11811,0.984252,-0.11811][38.0586,-9.0586,0][-0.983382,0.792314,-2.95088e-07][-0.125984,0.992126,0.00787402][38.0615,-9,0][0.937618,0.733966,0.937618][0.11811,0.984252,0.11811][37.9414,-8.9414,0][2.24196e-07,0.860136,-2.98158e-07][0,1,0][38,-9,0][1.53197e-07,0.792314,0.983382][-0.00787402,0.992126,0.125984][38,-8.93854,0][1.50844,0.500132,1.50844][0.23622,0.944882,0.23622][37.9057,-8.90572,0][0.937618,0.733966,0.937618][0.11811,0.984252,0.11811][37.9414,-8.9414,0][0.83111,0.598166,1.66222][0.11811,0.96063,0.244094][37.9481,-8.89611,0][1.7954,0.301548,1.7954][0.362205,0.858268,0.354331][37.8878,-8.88779,0][1.50844,0.500132,1.50844][0.23622,0.944882,0.23622][37.9057,-8.90572,0][1.32599,0.383822,1.98899][0.251969,0.889764,0.377953][37.9171,-8.87569,0][1.98899,0.102049,1.98899][0.472441,0.740157,0.472441][37.8757,-8.87569,0][1.7954,0.301548,1.7954][0.362205,0.858268,0.354331][37.8878,-8.88779,0][1.32599,0.383822,1.98899][0.251969,0.889764,0.377953][37.9171,-8.87569,0][2.26266,0.179589,1.50844][0.551181,0.771654,0.330709][37.8586,-8.90572,0][1.98899,0.102049,1.98899][0.472441,0.740157,0.472441][37.8757,-8.87569,0][2.49332,-0.108276,1.66222][0.748031,0.496063,0.440945][37.8442,-8.89611,0][2.81286,-0.0630098,0.937618][0.811024,0.543307,0.228346][37.9414,-9.00182,0][2.49332,-0.108276,1.66222][0.748031,0.496063,0.440945][37.8961,-9.00465,0][2.95014,-0.461498,0.983382][0.929134,0.15748,0.330709][37.9385,-9.02672,0][-2.14026,-0.158294,-2.14026][-0.622047,0.480315,-0.622047][37.8662,-9.00777,0][-2.1989,-0.461498,-2.1989][-0.677165,0.11811,-0.724409][37.8626,-9.02672,0][-2.58744,-0.461498,-1.72497][-0.826772,0.125984,-0.551181][37.8922,-9.02672,0][-1.98899,0.102049,-1.98899][-0.472441,0.740157,-0.472441][38.1243,-9.12431,0][-2.14026,-0.158294,-2.14026][-0.622047,0.480315,-0.622047][38.1338,-9.13377,0][-2.49332,-0.108276,-1.66222][-0.748031,0.496063,-0.440945][38.1558,-9.10389,0][-1.7954,0.301548,-1.7954][-0.362205,0.858268,-0.354331][38.1122,-9.11221,0][-1.98899,0.102049,-1.98899][-0.472441,0.740157,-0.472441][38.1243,-9.12431,0][-2.26266,0.179589,-1.50844][-0.551181,0.771654,-0.330709][38.1414,-9.09428,0][-1.98899,0.383822,-1.32599][-0.377953,0.897638,-0.23622][38.1243,-9.08287,0][-1.7954,0.301548,-1.7954][-0.362205,0.858268,-0.354331][38.1122,-9.11221,0][-2.26266,0.179589,-1.50844][-0.551181,0.771654,-0.330709][38.1414,-9.09428,0][-1.50844,0.500132,-1.50844][-0.23622,0.944882,-0.23622][38.0943,-9.09428,0][-1.98899,0.383822,-1.32599][-0.377953,0.897638,-0.23622][38.1243,-9.08287,0][-1.66222,0.598168,-0.83111][-0.244094,0.96063,-0.11811][38.1039,-9.05194,0][-0.937618,0.733966,-0.937618][-0.11811,0.984252,-0.11811][38.0586,-9.0586,0][-1.66222,0.598168,-0.83111][-0.244094,0.96063,-0.11811][38.1039,-9.05194,0][-0.983382,0.792314,-2.95088e-07][-0.125984,0.992126,0.00787402][38.0615,-9,0][2.24196e-07,0.860136,-2.98158e-07][0,1,0][38,-9,0][-0.983382,0.792314,-2.95088e-07][-0.125984,0.992126,0.00787402][38.0615,-9,0][1.53197e-07,0.792314,0.983382][-0.00787402,0.992126,0.125984][38,-8.93854,0][0.937618,0.733966,0.937618][0.11811,0.984252,0.11811][37.9414,-8.9414,0][1.53197e-07,0.792314,0.983382][-0.00787402,0.992126,0.125984][38,-8.93854,0][0.83111,0.598166,1.66222][0.11811,0.96063,0.244094][37.9481,-8.89611,0][1.50844,0.500132,1.50844][0.23622,0.944882,0.23622][37.9057,-8.90572,0][0.83111,0.598166,1.66222][0.11811,0.96063,0.244094][37.9481,-8.89611,0][1.32599,0.383822,1.98899][0.251969,0.889764,0.377953][37.9171,-8.87569,0][1.98899,0.102049,1.98899][0.472441,0.740157,0.472441][37.8757,-8.87569,0][1.32599,0.383822,1.98899][0.251969,0.889764,0.377953][37.9171,-8.87569,0][1.50844,0.179589,2.26266][0.330709,0.779528,0.527559][37.9057,-8.85858,0][2.49332,-0.108276,1.66222][0.748031,0.496063,0.440945][37.8442,-8.89611,0][1.98899,0.102049,1.98899][0.472441,0.740157,0.472441][37.8757,-8.87569,0][2.14026,-0.158294,2.14026][0.622047,0.480315,0.622047][37.8662,-8.86623,0][2.95014,-0.461498,0.983382][0.929134,0.15748,0.330709][37.9385,-9.02672,0][2.49332,-0.108276,1.66222][0.748031,0.496063,0.440945][37.8961,-9.00465,0][2.58744,-0.461498,1.72497][0.826772,0.133858,0.543307][37.8922,-9.02672,0][-2.14026,-0.158294,-2.14026][-0.622047,0.480315,-0.622047][37.8662,-9.00777,0][-2.58744,-0.461498,-1.72497][-0.826772,0.125984,-0.551181][37.8922,-9.02672,0][-2.49332,-0.108276,-1.66222][-0.748031,0.496063,-0.440945][37.8961,-9.00465,0][-1.98899,0.102049,-1.98899][-0.472441,0.740157,-0.472441][38.1243,-9.12431,0][-2.49332,-0.108276,-1.66222][-0.748031,0.496063,-0.440945][38.1558,-9.10389,0][-2.26266,0.179589,-1.50844][-0.551181,0.771654,-0.330709][38.1414,-9.09428,0][2.49332,-0.108276,1.66222][0.748031,0.496063,0.440945][37.8961,-9.00465,0][2.14026,-0.158294,2.14026][0.622047,0.480315,0.622047][37.8662,-9.00777,0][2.58744,-0.461498,1.72497][0.826772,0.133858,0.543307][37.8922,-9.02672,0][2.58744,-0.461498,1.72497][0.826772,0.133858,0.543307][37.8922,-9.02672,0][2.14026,-0.158294,2.14026][0.622047,0.480315,0.622047][37.8662,-9.00777,0][2.1989,-0.461498,2.1989][0.677165,0.110236,0.724409][37.8626,-9.02672,0][2.1989,-0.461498,2.1989][0.677165,0.110236,0.724409][38.1374,-9.02672,0][2.14026,-0.158294,2.14026][0.622047,0.480315,0.622047][38.1338,-9.00777,0][1.66222,-0.108276,2.49332][0.440945,0.543307,0.716535][38.1039,-9.00465,0][1.66222,-0.108276,2.49332][0.440945,0.543307,0.716535][37.8961,-8.84417,0][2.14026,-0.158294,2.14026][0.622047,0.480315,0.622047][37.8662,-8.86623,0][1.50844,0.179589,2.26266][0.330709,0.779528,0.527559][37.9057,-8.85858,0][2.1989,-0.461498,2.1989][0.677165,0.110236,0.724409][38.1374,-9.02672,0][1.66222,-0.108276,2.49332][0.440945,0.543307,0.716535][38.1039,-9.00465,0][1.72497,-0.461498,2.58744][0.488189,0.149606,0.858268][38.1078,-9.02672,0][1.50844,0.179589,2.26266][0.330709,0.779528,0.527559][37.9057,-8.85858,0][2.14026,-0.158294,2.14026][0.622047,0.480315,0.622047][37.8662,-8.86623,0][1.98899,0.102049,1.98899][0.472441,0.740157,0.472441][37.8757,-8.87569,0][1.66222,-0.108276,2.49332][0.440945,0.543307,0.716535][37.8961,-8.84417,0][1.50844,0.179589,2.26266][0.330709,0.779528,0.527559][37.9057,-8.85858,0][0.83111,0.244946,2.49332][0.181102,0.811024,0.559055][37.9481,-8.84417,0][1.72497,-0.461498,2.58744][0.488189,0.149606,0.858268][38.1078,-9.02672,0][1.66222,-0.108276,2.49332][0.440945,0.543307,0.716535][38.1039,-9.00465,0][0.937618,-0.0630102,2.81286][0.244094,0.566929,0.787402][38.0586,-9.00182,0][0.83111,0.244946,2.49332][0.181102,0.811024,0.559055][37.9481,-8.84417,0][1.50844,0.179589,2.26266][0.330709,0.779528,0.527559][37.9057,-8.85858,0][0.71342,0.448114,2.14026][0.125984,0.913386,0.385827][37.9554,-8.86623,0][1.66222,-0.108276,2.49332][0.440945,0.543307,0.716535][37.8961,-8.84417,0][0.83111,0.244946,2.49332][0.181102,0.811024,0.559055][37.9481,-8.84417,0][0.937618,-0.0630102,2.81286][0.244094,0.566929,0.787402][37.9414,-8.8242,0][1.72497,-0.461498,2.58744][0.488189,0.149606,0.858268][38.1078,-9.02672,0][0.937618,-0.0630102,2.81286][0.244094,0.566929,0.787402][38.0586,-9.00182,0][0.983382,-0.461498,2.95014][0.23622,0.165354,0.952756][38.0615,-9.02672,0][0.71342,0.448114,2.14026][0.125984,0.913386,0.385827][37.9554,-8.86623,0][1.50844,0.179589,2.26266][0.330709,0.779528,0.527559][37.9057,-8.85858,0][1.32599,0.383822,1.98899][0.251969,0.889764,0.377953][37.9171,-8.87569,0][0.83111,0.244946,2.49332][0.181102,0.811024,0.559055][37.9481,-8.84417,0][0.71342,0.448114,2.14026][0.125984,0.913386,0.385827][37.9554,-8.86623,0][2.55608e-07,0.473038,2.1989][0,0.92126,0.393701][38,-8.86257,0][0.937618,-0.0630102,2.81286][0.244094,0.566929,0.787402][37.9414,-8.8242,0][0.83111,0.244946,2.49332][0.181102,0.811024,0.559055][37.9481,-8.84417,0][2.75602e-07,0.271612,2.58744][0.015748,0.818898,0.574803][38,-8.83828,0][0.983382,-0.461498,2.95014][0.23622,0.165354,0.952756][38.0615,-9.02672,0][0.937618,-0.0630102,2.81286][0.244094,0.566929,0.787402][38.0586,-9.00182,0][1.60411e-07,-0.0435604,2.95014][0.00787402,0.566929,0.818898][38,-9.0006,0][0.71342,0.448114,2.14026][0.125984,0.913386,0.385827][37.9554,-8.86623,0][1.32599,0.383822,1.98899][0.251969,0.889764,0.377953][37.9171,-8.87569,0][0.83111,0.598166,1.66222][0.11811,0.96063,0.244094][37.9481,-8.89611,0][2.55608e-07,0.473038,2.1989][0,0.92126,0.393701][38,-8.86257,0][0.71342,0.448114,2.14026][0.125984,0.913386,0.385827][37.9554,-8.86623,0][2.40484e-07,0.638168,1.72497][-0.00787402,0.968504,0.244094][38,-8.89219,0][0.83111,0.244946,2.49332][0.181102,0.811024,0.559055][37.9481,-8.84417,0][2.55608e-07,0.473038,2.1989][0,0.92126,0.393701][38,-8.86257,0][2.75602e-07,0.271612,2.58744][0.015748,0.818898,0.574803][38,-8.83828,0][0.937618,-0.0630102,2.81286][0.244094,0.566929,0.787402][37.9414,-8.8242,0][2.75602e-07,0.271612,2.58744][0.015748,0.818898,0.574803][38,-8.83828,0][1.60411e-07,-0.0435604,2.95014][0.00787402,0.566929,0.818898][38,-8.81562,0][0.983382,-0.461498,2.95014][0.23622,0.165354,0.952756][38.0615,-9.02672,0][1.60411e-07,-0.0435604,2.95014][0.00787402,0.566929,0.818898][38,-9.0006,0][9.24844e-08,-0.461498,3.10972][-0.0472441,0.173228,0.984252][38,-9.02672,0][0.71342,0.448114,2.14026][0.125984,0.913386,0.385827][37.9554,-8.86623,0][0.83111,0.598166,1.66222][0.11811,0.96063,0.244094][37.9481,-8.89611,0][2.40484e-07,0.638168,1.72497][-0.00787402,0.968504,0.244094][38,-8.89219,0][2.55608e-07,0.473038,2.1989][0,0.92126,0.393701][38,-8.86257,0][2.40484e-07,0.638168,1.72497][-0.00787402,0.968504,0.244094][38,-8.89219,0][-0.83111,0.598166,1.66222][-0.133858,0.96063,0.251969][38.0519,-8.89611,0][2.75602e-07,0.271612,2.58744][0.015748,0.818898,0.574803][38,-8.83828,0][2.55608e-07,0.473038,2.1989][0,0.92126,0.393701][38,-8.86257,0][-0.71342,0.448114,2.14026][-0.125984,0.913386,0.385827][38.0446,-8.86623,0][1.60411e-07,-0.0435604,2.95014][0.00787402,0.566929,0.818898][38,-8.81562,0][2.75602e-07,0.271612,2.58744][0.015748,0.818898,0.574803][38,-8.83828,0][-0.83111,0.244946,2.49332][-0.165354,0.80315,0.574803][38.0519,-8.84417,0][9.24844e-08,-0.461498,3.10972][-0.0472441,0.173228,0.984252][38,-9.02672,0][1.60411e-07,-0.0435604,2.95014][0.00787402,0.566929,0.818898][38,-9.0006,0][-0.937618,-0.06301,2.81286][-0.228346,0.543307,0.811024][37.9414,-9.00182,0][2.40484e-07,0.638168,1.72497][-0.00787402,0.968504,0.244094][38,-8.89219,0][0.83111,0.598166,1.66222][0.11811,0.96063,0.244094][37.9481,-8.89611,0][1.53197e-07,0.792314,0.983382][-0.00787402,0.992126,0.125984][38,-8.93854,0][-0.83111,0.598166,1.66222][-0.133858,0.96063,0.251969][38.0519,-8.89611,0][2.40484e-07,0.638168,1.72497][-0.00787402,0.968504,0.244094][38,-8.89219,0][-0.937618,0.733966,0.937618][-0.125984,0.984252,0.125984][38.0586,-8.9414,0][2.55608e-07,0.473038,2.1989][0,0.92126,0.393701][38,-8.86257,0][-0.83111,0.598166,1.66222][-0.133858,0.96063,0.251969][38.0519,-8.89611,0][-0.71342,0.448114,2.14026][-0.125984,0.913386,0.385827][38.0446,-8.86623,0][2.75602e-07,0.271612,2.58744][0.015748,0.818898,0.574803][38,-8.83828,0][-0.71342,0.448114,2.14026][-0.125984,0.913386,0.385827][38.0446,-8.86623,0][-0.83111,0.244946,2.49332][-0.165354,0.80315,0.574803][38.0519,-8.84417,0][1.60411e-07,-0.0435604,2.95014][0.00787402,0.566929,0.818898][38,-8.81562,0][-0.83111,0.244946,2.49332][-0.165354,0.80315,0.574803][38.0519,-8.84417,0][-0.937618,-0.06301,2.81286][-0.228346,0.543307,0.811024][38.0586,-8.8242,0][9.24844e-08,-0.461498,3.10972][-0.0472441,0.173228,0.984252][38,-9.02672,0][-0.937618,-0.06301,2.81286][-0.228346,0.543307,0.811024][37.9414,-9.00182,0][-0.983382,-0.461498,2.95014][-0.330709,0.15748,0.929134][37.9385,-9.02672,0][2.40484e-07,0.638168,1.72497][-0.00787402,0.968504,0.244094][38,-8.89219,0][1.53197e-07,0.792314,0.983382][-0.00787402,0.992126,0.125984][38,-8.93854,0][-0.937618,0.733966,0.937618][-0.125984,0.984252,0.125984][38.0586,-8.9414,0][-0.83111,0.598166,1.66222][-0.133858,0.96063,0.251969][38.0519,-8.89611,0][-0.937618,0.733966,0.937618][-0.125984,0.984252,0.125984][38.0586,-8.9414,0][-1.66222,0.598166,0.83111][-0.251969,0.96063,0.133858][38.1039,-8.94806,0][-0.71342,0.448114,2.14026][-0.125984,0.913386,0.385827][38.0446,-8.86623,0][-0.83111,0.598166,1.66222][-0.133858,0.96063,0.251969][38.0519,-8.89611,0][-1.50844,0.500132,1.50844][-0.251969,0.937008,0.251969][38.0943,-8.90572,0][-0.83111,0.244946,2.49332][-0.165354,0.80315,0.574803][38.0519,-8.84417,0][-0.71342,0.448114,2.14026][-0.125984,0.913386,0.385827][38.0446,-8.86623,0][-1.32599,0.383822,1.98899][-0.251969,0.889764,0.377953][38.0829,-8.87569,0][-0.937618,-0.06301,2.81286][-0.228346,0.543307,0.811024][38.0586,-8.8242,0][-0.83111,0.244946,2.49332][-0.165354,0.80315,0.574803][38.0519,-8.84417,0][-1.50844,0.179589,2.26266][-0.330709,0.771654,0.551181][38.0943,-8.85858,0][-0.983382,-0.461498,2.95014][-0.330709,0.15748,0.929134][37.9385,-9.02672,0][-0.937618,-0.06301,2.81286][-0.228346,0.543307,0.811024][37.9414,-9.00182,0][-1.66222,-0.108276,2.49332][-0.440945,0.496063,0.748031][37.8961,-9.00465,0][-0.937618,0.733966,0.937618][-0.125984,0.984252,0.125984][38.0586,-8.9414,0][1.53197e-07,0.792314,0.983382][-0.00787402,0.992126,0.125984][38,-8.93854,0][-0.983382,0.792314,-2.95088e-07][-0.125984,0.992126,0.00787402][38.0615,-9,0][-1.66222,0.598166,0.83111][-0.251969,0.96063,0.133858][38.1039,-8.94806,0][-0.937618,0.733966,0.937618][-0.125984,0.984252,0.125984][38.0586,-8.9414,0][-1.72497,0.638168,-2.78078e-07][-0.244094,0.968504,0.00787402][38.1078,-9,0][-0.83111,0.598166,1.66222][-0.133858,0.96063,0.251969][38.0519,-8.89611,0][-1.66222,0.598166,0.83111][-0.251969,0.96063,0.133858][38.1039,-8.94806,0][-1.50844,0.500132,1.50844][-0.251969,0.937008,0.251969][38.0943,-8.90572,0][-0.71342,0.448114,2.14026][-0.125984,0.913386,0.385827][38.0446,-8.86623,0][-1.50844,0.500132,1.50844][-0.251969,0.937008,0.251969][38.0943,-8.90572,0][-1.32599,0.383822,1.98899][-0.251969,0.889764,0.377953][38.0829,-8.87569,0][-0.83111,0.244946,2.49332][-0.165354,0.80315,0.574803][38.0519,-8.84417,0][-1.32599,0.383822,1.98899][-0.251969,0.889764,0.377953][38.0829,-8.87569,0][-1.50844,0.179589,2.26266][-0.330709,0.771654,0.551181][38.0943,-8.85858,0][-0.937618,-0.06301,2.81286][-0.228346,0.543307,0.811024][38.0586,-8.8242,0][-1.50844,0.179589,2.26266][-0.330709,0.771654,0.551181][38.0943,-8.85858,0][-1.66222,-0.108276,2.49332][-0.440945,0.496063,0.748031][38.1039,-8.84417,0][-0.983382,-0.461498,2.95014][-0.330709,0.15748,0.929134][37.9385,-9.02672,0][-1.66222,-0.108276,2.49332][-0.440945,0.496063,0.748031][37.8961,-9.00465,0][-1.72497,-0.461498,2.58744][-0.551181,0.125984,0.826772][37.8922,-9.02672,0][-0.937618,0.733966,0.937618][-0.125984,0.984252,0.125984][38.0586,-8.9414,0][-0.983382,0.792314,-2.95088e-07][-0.125984,0.992126,0.00787402][38.0615,-9,0][-1.72497,0.638168,-2.78078e-07][-0.244094,0.968504,0.00787402][38.1078,-9,0][-1.66222,0.598166,0.83111][-0.251969,0.96063,0.133858][38.1039,-8.94806,0][-1.72497,0.638168,-2.78078e-07][-0.244094,0.968504,0.00787402][38.1078,-9,0][-2.1989,0.473038,-1.67815e-07][-0.393701,0.92126,0.023622][38.1374,-9,0][-1.50844,0.500132,1.50844][-0.251969,0.937008,0.251969][38.0943,-8.90572,0][-1.66222,0.598166,0.83111][-0.251969,0.96063,0.133858][38.1039,-8.94806,0][-2.14026,0.448114,0.71342][-0.385827,0.905512,0.15748][38.1338,-8.95541,0][-1.32599,0.383822,1.98899][-0.251969,0.889764,0.377953][38.0829,-8.87569,0][-1.50844,0.500132,1.50844][-0.251969,0.937008,0.251969][38.0943,-8.90572,0][-1.98899,0.383822,1.32599][-0.377953,0.88189,0.275591][38.1243,-8.91713,0][-1.50844,0.179589,2.26266][-0.330709,0.771654,0.551181][38.0943,-8.85858,0][-1.32599,0.383822,1.98899][-0.251969,0.889764,0.377953][38.0829,-8.87569,0][-1.7954,0.301548,1.7954][-0.362205,0.850394,0.370079][38.1122,-8.88779,0][-1.66222,-0.108276,2.49332][-0.440945,0.496063,0.748031][38.1039,-8.84417,0][-1.50844,0.179589,2.26266][-0.330709,0.771654,0.551181][38.0943,-8.85858,0][-1.98899,0.102049,1.98899][-0.472441,0.740157,0.472441][38.1243,-8.87569,0][-1.72497,-0.461498,2.58744][-0.551181,0.125984,0.826772][37.8922,-9.02672,0][-1.66222,-0.108276,2.49332][-0.440945,0.496063,0.748031][37.8961,-9.00465,0][-2.14026,-0.158294,2.14026][-0.622047,0.480315,0.622047][37.8662,-9.00777,0][-1.72497,0.638168,-2.78078e-07][-0.244094,0.968504,0.00787402][38.1078,-9,0][-0.983382,0.792314,-2.95088e-07][-0.125984,0.992126,0.00787402][38.0615,-9,0][-1.66222,0.598168,-0.83111][-0.244094,0.96063,-0.11811][38.1039,-9.05194,0][-2.1989,0.473038,-1.67815e-07][-0.393701,0.92126,0.023622][38.1374,-9,0][-1.72497,0.638168,-2.78078e-07][-0.244094,0.968504,0.00787402][38.1078,-9,0][-2.14026,0.448114,-0.71342][-0.385827,0.913386,-0.102362][38.1338,-9.04459,0][-1.66222,0.598166,0.83111][-0.251969,0.96063,0.133858][38.1039,-8.94806,0][-2.1989,0.473038,-1.67815e-07][-0.393701,0.92126,0.023622][38.1374,-9,0][-2.14026,0.448114,0.71342][-0.385827,0.905512,0.15748][38.1338,-8.95541,0][-1.50844,0.500132,1.50844][-0.251969,0.937008,0.251969][38.0943,-8.90572,0][-2.14026,0.448114,0.71342][-0.385827,0.905512,0.15748][38.1338,-8.95541,0][-1.98899,0.383822,1.32599][-0.377953,0.88189,0.275591][38.1243,-8.91713,0][-1.32599,0.383822,1.98899][-0.251969,0.889764,0.377953][38.0829,-8.87569,0][-1.98899,0.383822,1.32599][-0.377953,0.88189,0.275591][38.1243,-8.91713,0][-1.7954,0.301548,1.7954][-0.362205,0.850394,0.370079][38.1122,-8.88779,0][-1.50844,0.179589,2.26266][-0.330709,0.771654,0.551181][38.0943,-8.85858,0][-1.7954,0.301548,1.7954][-0.362205,0.850394,0.370079][38.1122,-8.88779,0][-1.98899,0.102049,1.98899][-0.472441,0.740157,0.472441][38.1243,-8.87569,0][-1.66222,-0.108276,2.49332][-0.440945,0.496063,0.748031][38.1039,-8.84417,0][-1.98899,0.102049,1.98899][-0.472441,0.740157,0.472441][38.1243,-8.87569,0][-2.14026,-0.158294,2.14026][-0.622047,0.480315,0.622047][38.1338,-8.86623,0][-1.72497,-0.461498,2.58744][-0.551181,0.125984,0.826772][37.8922,-9.02672,0][-2.14026,-0.158294,2.14026][-0.622047,0.480315,0.622047][37.8662,-9.00777,0][-2.1989,-0.461498,2.1989][-0.724409,0.11811,0.677165][37.8626,-9.02672,0][-1.72497,0.638168,-2.78078e-07][-0.244094,0.968504,0.00787402][38.1078,-9,0][-1.66222,0.598168,-0.83111][-0.244094,0.96063,-0.11811][38.1039,-9.05194,0][-2.14026,0.448114,-0.71342][-0.385827,0.913386,-0.102362][38.1338,-9.04459,0][-2.1989,0.473038,-1.67815e-07][-0.393701,0.92126,0.023622][38.1374,-9,0][-2.14026,0.448114,-0.71342][-0.385827,0.913386,-0.102362][38.1338,-9.04459,0][-2.58744,0.271612,-2.79432e-07][-0.574803,0.818898,0.015748][38.1617,-9,0][-2.14026,0.448114,0.71342][-0.385827,0.905512,0.15748][38.1338,-8.95541,0][-2.1989,0.473038,-1.67815e-07][-0.393701,0.92126,0.023622][38.1374,-9,0][-2.49332,0.244946,0.83111][-0.559055,0.811024,0.181102][38.1558,-8.94806,0][-1.98899,0.383822,1.32599][-0.377953,0.88189,0.275591][38.1243,-8.91713,0][-2.14026,0.448114,0.71342][-0.385827,0.905512,0.15748][38.1338,-8.95541,0][-2.26266,0.179589,1.50844][-0.527559,0.779528,0.330709][38.1414,-8.90572,0][-1.7954,0.301548,1.7954][-0.362205,0.850394,0.370079][38.1122,-8.88779,0][-1.98899,0.383822,1.32599][-0.377953,0.88189,0.275591][38.1243,-8.91713,0][-1.98899,0.102049,1.98899][-0.472441,0.740157,0.472441][38.1243,-8.87569,0][-2.14026,-0.158294,2.14026][-0.622047,0.480315,0.622047][38.1338,-8.86623,0][-1.98899,0.102049,1.98899][-0.472441,0.740157,0.472441][38.1243,-8.87569,0][-2.26266,0.179589,1.50844][-0.527559,0.779528,0.330709][38.1414,-8.90572,0][-2.1989,-0.461498,2.1989][-0.724409,0.11811,0.677165][38.1374,-9.02672,0][-2.14026,-0.158294,2.14026][-0.622047,0.480315,0.622047][38.1338,-9.00777,0][-2.49332,-0.108276,1.66222][-0.716535,0.543307,0.440945][38.1039,-9.00465,0][-2.14026,0.448114,-0.71342][-0.385827,0.913386,-0.102362][38.1338,-9.04459,0][-1.66222,0.598168,-0.83111][-0.244094,0.96063,-0.11811][38.1039,-9.05194,0][-1.98899,0.383822,-1.32599][-0.377953,0.897638,-0.23622][38.1243,-9.08287,0][-2.58744,0.271612,-2.79432e-07][-0.574803,0.818898,0.015748][38.1617,-9,0][-2.14026,0.448114,-0.71342][-0.385827,0.913386,-0.102362][38.1338,-9.04459,0][-2.49332,0.244946,-0.83111][-0.574803,0.80315,-0.165354][38.1558,-9.05194,0][-2.1989,0.473038,-1.67815e-07][-0.393701,0.92126,0.023622][38.1374,-9,0][-2.58744,0.271612,-2.79432e-07][-0.574803,0.818898,0.015748][38.1617,-9,0][-2.49332,0.244946,0.83111][-0.559055,0.811024,0.181102][38.1558,-8.94806,0][-2.14026,0.448114,0.71342][-0.385827,0.905512,0.15748][38.1338,-8.95541,0][-2.49332,0.244946,0.83111][-0.559055,0.811024,0.181102][38.1558,-8.94806,0][-2.26266,0.179589,1.50844][-0.527559,0.779528,0.330709][38.1414,-8.90572,0][-1.98899,0.383822,1.32599][-0.377953,0.88189,0.275591][38.1243,-8.91713,0][-2.26266,0.179589,1.50844][-0.527559,0.779528,0.330709][38.1414,-8.90572,0][-1.98899,0.102049,1.98899][-0.472441,0.740157,0.472441][38.1243,-8.87569,0][-2.14026,-0.158294,2.14026][-0.622047,0.480315,0.622047][38.1338,-8.86623,0][-2.26266,0.179589,1.50844][-0.527559,0.779528,0.330709][38.1414,-8.90572,0][-2.49332,-0.108276,1.66222][-0.716535,0.543307,0.440945][38.1558,-8.89611,0][-2.1989,-0.461498,2.1989][-0.724409,0.11811,0.677165][38.1374,-9.02672,0][-2.49332,-0.108276,1.66222][-0.716535,0.543307,0.440945][38.1039,-9.00465,0][-2.58744,-0.461498,1.72497][-0.858268,0.149606,0.488189][38.1078,-9.02672,0][-2.14026,0.448114,-0.71342][-0.385827,0.913386,-0.102362][38.1338,-9.04459,0][-1.98899,0.383822,-1.32599][-0.377953,0.897638,-0.23622][38.1243,-9.08287,0][-2.49332,0.244946,-0.83111][-0.574803,0.80315,-0.165354][38.1558,-9.05194,0][-2.58744,0.271612,-2.79432e-07][-0.574803,0.818898,0.015748][38.1617,-9,0][-2.49332,0.244946,-0.83111][-0.574803,0.80315,-0.165354][38.1558,-9.05194,0][-2.95014,-0.0435606,-2.85954e-07][-0.818898,0.566929,0.00787402][38.1844,-9,0][-2.49332,0.244946,0.83111][-0.559055,0.811024,0.181102][38.1558,-8.94806,0][-2.58744,0.271612,-2.79432e-07][-0.574803,0.818898,0.015748][38.1617,-9,0][-2.81286,-0.0630102,0.937618][-0.787402,0.566929,0.244094][38.1758,-8.9414,0][-2.26266,0.179589,1.50844][-0.527559,0.779528,0.330709][38.1414,-8.90572,0][-2.49332,0.244946,0.83111][-0.559055,0.811024,0.181102][38.1558,-8.94806,0][-2.49332,-0.108276,1.66222][-0.716535,0.543307,0.440945][38.1558,-8.89611,0][-2.58744,-0.461498,1.72497][-0.858268,0.149606,0.488189][38.1078,-9.02672,0][-2.49332,-0.108276,1.66222][-0.716535,0.543307,0.440945][38.1039,-9.00465,0][-2.81286,-0.0630102,0.937618][-0.787402,0.566929,0.244094][38.0586,-9.00182,0][-2.49332,0.244946,-0.83111][-0.574803,0.80315,-0.165354][38.1558,-9.05194,0][-1.98899,0.383822,-1.32599][-0.377953,0.897638,-0.23622][38.1243,-9.08287,0][-2.26266,0.179589,-1.50844][-0.551181,0.771654,-0.330709][38.1414,-9.09428,0][-2.95014,-0.0435606,-2.85954e-07][-0.818898,0.566929,0.00787402][38.1844,-9,0][-2.49332,0.244946,-0.83111][-0.574803,0.80315,-0.165354][38.1558,-9.05194,0][-2.81286,-0.06301,-0.937618][-0.811024,0.543307,-0.228346][38.1758,-9.0586,0][-2.58744,0.271612,-2.79432e-07][-0.574803,0.818898,0.015748][38.1617,-9,0][-2.95014,-0.0435606,-2.85954e-07][-0.818898,0.566929,0.00787402][38.1844,-9,0][-2.81286,-0.0630102,0.937618][-0.787402,0.566929,0.244094][38.1758,-8.9414,0][-2.49332,0.244946,0.83111][-0.559055,0.811024,0.181102][38.1558,-8.94806,0][-2.81286,-0.0630102,0.937618][-0.787402,0.566929,0.244094][38.1758,-8.9414,0][-2.49332,-0.108276,1.66222][-0.716535,0.543307,0.440945][38.1558,-8.89611,0][-2.58744,-0.461498,1.72497][-0.858268,0.149606,0.488189][38.1078,-9.02672,0][-2.81286,-0.0630102,0.937618][-0.787402,0.566929,0.244094][38.0586,-9.00182,0][-2.95014,-0.461498,0.983382][-0.952756,0.165354,0.23622][38.0615,-9.02672,0][-2.49332,0.244946,-0.83111][-0.574803,0.80315,-0.165354][38.1558,-9.05194,0][-2.26266,0.179589,-1.50844][-0.551181,0.771654,-0.330709][38.1414,-9.09428,0][-2.81286,-0.06301,-0.937618][-0.811024,0.543307,-0.228346][38.1758,-9.0586,0][-2.95014,-0.0435606,-2.85954e-07][-0.818898,0.566929,0.00787402][38,-9.0006,0][-2.81286,-0.06301,-0.937618][-0.811024,0.543307,-0.228346][37.9414,-9.00182,0][-3.10972,-0.461498,-2.92904e-07][-0.984252,0.173228,-0.0472441][38,-9.02672,0][-2.81286,-0.0630102,0.937618][-0.787402,0.566929,0.244094][38.0586,-9.00182,0][-2.95014,-0.0435606,-2.85954e-07][-0.818898,0.566929,0.00787402][38,-9.0006,0][-2.95014,-0.461498,0.983382][-0.952756,0.165354,0.23622][38.0615,-9.02672,0][-2.81286,-0.06301,-0.937618][-0.811024,0.543307,-0.228346][38.1758,-9.0586,0][-2.26266,0.179589,-1.50844][-0.551181,0.771654,-0.330709][38.1414,-9.09428,0][-2.49332,-0.108276,-1.66222][-0.748031,0.496063,-0.440945][38.1558,-9.10389,0][-3.10972,-0.461498,-2.92904e-07][-0.984252,0.173228,-0.0472441][38,-9.02672,0][-2.81286,-0.06301,-0.937618][-0.811024,0.543307,-0.228346][37.9414,-9.00182,0][-2.95014,-0.461498,-0.983382][-0.929134,0.15748,-0.330709][37.9385,-9.02672,0][-2.95014,-0.0435606,-2.85954e-07][-0.818898,0.566929,0.00787402][38,-9.0006,0][-3.10972,-0.461498,-2.92904e-07][-0.984252,0.173228,-0.0472441][38,-9.02672,0][-2.95014,-0.461498,0.983382][-0.952756,0.165354,0.23622][38.0615,-9.02672,0][-2.58744,-0.461498,-1.72497][-0.826772,0.125984,-0.551181][37.8922,-9.02672,0][-2.95014,-0.461498,-0.983382][-0.929134,0.15748,-0.330709][37.9385,-9.02672,0][-2.49332,-0.108276,-1.66222][-0.748031,0.496063,-0.440945][37.8961,-9.00465,0][-2.49332,-0.108276,-1.66222][-0.748031,0.496063,-0.440945][37.8961,-9.00465,0][-2.95014,-0.461498,-0.983382][-0.929134,0.15748,-0.330709][37.9385,-9.02672,0][-2.81286,-0.06301,-0.937618][-0.811024,0.543307,-0.228346][37.9414,-9.00182,0][-1.16878,-0.927956,-2.85948][0,-1,0][37.927,-9.17872,0][-0.983382,-0.927956,-2.95014][0,-1,0][37.9385,-9.18438,0][-0.245844,-0.927956,-3.06984][0,-1,0][37.9846,-9.19186,0][2.99004,-0.927956,0.737538][0,-1,0][38.1869,-8.9539,0][-1.84345,-0.927956,-2.49032][0,-1,0][37.8848,-9.15564,0][-1.16878,-0.927956,-2.85948][0,-1,0][37.927,-9.17872,0][-0.245844,-0.927956,-3.06984][0,-1,0][37.9846,-9.19186,0][2.99004,-0.927956,0.737538][0,-1,0][38.1869,-8.9539,0][-1.16878,-0.927956,-2.85948][0,-1,0][37.927,-9.17872,0][0.737538,-0.927956,-2.99004][0,-1,0][38.0461,-9.18688,0][-0.245844,-0.927956,-3.06984][0,-1,0][37.9846,-9.19186,0][1.21378e-07,-0.927956,-3.10972][0,-1,0][38,-9.19436,0][1.53957,-0.927956,-2.67812][0,-1,0][38.0962,-9.16738,0][0.737538,-0.927956,-2.99004][0,-1,0][38.0461,-9.18688,0][0.983382,-0.927956,-2.95014][0,-1,0][38.0615,-9.18438,0][-1.72497,-0.927956,-2.58744][0,-1,0][37.8922,-9.16172,0][-1.16878,-0.927956,-2.85948][0,-1,0][37.927,-9.17872,0][-1.84345,-0.927956,-2.49032][0,-1,0][37.8848,-9.15564,0][2.29604,-0.927956,2.08042][0,-1,0][38.1435,-8.86997,0][-2.19884,-0.927956,-2.19896][0,-1,0][37.8626,-9.13743,0][-1.84345,-0.927956,-2.49032][0,-1,0][37.8848,-9.15564,0][1.53957,-0.927956,-2.67812][0,-1,0][38.0962,-9.16738,0][1.72497,-0.927956,-2.58744][0,-1,0][38.1078,-9.16172,0][2.08042,-0.927956,-2.29604][0,-1,0][38.13,-9.1435,0][-0.245844,-0.927956,-3.06984][0,-1,0][37.9846,-9.19186,0][0.737538,-0.927956,-2.99004][0,-1,0][38.0461,-9.18688,0][3.06984,-0.927956,-0.245846][0,-1,0][38.1919,-9.01537,0][0.737538,-0.927956,-2.99004][0,-1,0][38.0461,-9.18688,0][1.53957,-0.927956,-2.67812][0,-1,0][38.0962,-9.16738,0][2.85948,-0.927956,-1.16878][0,-1,0][38.1787,-9.07305,0][1.53957,-0.927956,-2.67812][0,-1,0][38.0962,-9.16738,0][2.08042,-0.927956,-2.29604][0,-1,0][38.13,-9.1435,0][2.49032,-0.927956,-1.84345][0,-1,0][38.1556,-9.11522,0][2.49032,-0.927956,-1.84345][0,-1,0][38.1556,-9.11522,0][2.58744,-0.927956,-1.72497][0,-1,0][38.1617,-9.10781,0][2.85948,-0.927956,-1.16878][0,-1,0][38.1787,-9.07305,0][1.53957,-0.927956,-2.67812][0,-1,0][38.0962,-9.16738,0][2.49032,-0.927956,-1.84345][0,-1,0][38.1556,-9.11522,0][2.85948,-0.927956,-1.16878][0,-1,0][38.1787,-9.07305,0][2.85948,-0.927956,-1.16878][0,-1,0][38.1787,-9.07305,0][2.95014,-0.927956,-0.983382][0,-1,0][38.1844,-9.06146,0][3.06984,-0.927956,-0.245846][0,-1,0][38.1919,-9.01537,0][3.06984,-0.927956,-0.245846][0,-1,0][38.1919,-9.01537,0][0.737538,-0.927956,-2.99004][0,-1,0][38.0461,-9.18688,0][2.85948,-0.927956,-1.16878][0,-1,0][38.1787,-9.07305,0][-0.245844,-0.927956,-3.06984][0,-1,0][37.9846,-9.19186,0][3.06984,-0.927956,-0.245846][0,-1,0][38.1919,-9.01537,0][2.99004,-0.927956,0.737538][0,-1,0][38.1869,-8.9539,0][-2.19884,-0.927956,-2.19896][0,-1,0][37.8626,-9.13743,0][2.29604,-0.927956,2.08042][0,-1,0][38.1435,-8.86997,0][2.19896,-0.927956,2.19884][0,-1,0][38.1374,-8.86257,0][2.58744,-0.927956,1.72497][0,-1,0][38.1617,-8.89219,0][2.29604,-0.927956,2.08042][0,-1,0][38.1435,-8.86997,0][2.67812,-0.927956,1.53957][0,-1,0][38.1674,-8.90378,0][2.67812,-0.927956,1.53957][0,-1,0][38.1674,-8.90378,0][2.29604,-0.927956,2.08042][0,-1,0][38.1435,-8.86997,0][-1.84345,-0.927956,-2.49032][0,-1,0][37.8848,-9.15564,0][2.95014,-0.927956,0.983382][0,-1,0][38.1844,-8.93854,0][2.67812,-0.927956,1.53957][0,-1,0][38.1674,-8.90378,0][2.99004,-0.927956,0.737538][0,-1,0][38.1869,-8.9539,0][2.99004,-0.927956,0.737538][0,-1,0][38.1869,-8.9539,0][2.67812,-0.927956,1.53957][0,-1,0][38.1674,-8.90378,0][-1.84345,-0.927956,-2.49032][0,-1,0][37.8848,-9.15564,0][3.10972,-0.927956,-2.99668e-07][0,-1,0][38.1944,-9,0][2.99004,-0.927956,0.737538][0,-1,0][38.1869,-8.9539,0][3.06984,-0.927956,-0.245846][0,-1,0][38.1919,-9.01537,0][2.08042,-0.927956,-2.29604][0,-1,0][38.13,-9.1435,0][2.1989,-0.927956,-2.1989][0,-1,0][38.1374,-9.13743,0][2.49032,-0.927956,-1.84345][0,-1,0][38.1556,-9.11522,0][-2.99004,-0.927956,-0.737538][0,-1,0][37.8131,-9.0461,0][-2.95014,-0.927956,-0.983382][0,-1,0][37.8156,-9.06146,0][-2.67812,-0.927956,-1.53957][0,-1,0][37.8326,-9.09622,0][1.84345,-0.927956,2.49032][0,-1,0][38.1152,-8.84436,0][-2.99004,-0.927956,-0.737538][0,-1,0][37.8131,-9.0461,0][-2.67812,-0.927956,-1.53957][0,-1,0][37.8326,-9.09622,0][-0.737538,-0.927956,2.99004][0,-1,0][37.9539,-8.81312,0][-3.06984,-0.927956,0.245844][0,-1,0][37.8081,-8.98463,0][-2.99004,-0.927956,-0.737538][0,-1,0][37.8131,-9.0461,0][-2.29604,-0.927956,-2.08042][0,-1,0][37.8565,-9.13003,0][-2.67812,-0.927956,-1.53957][0,-1,0][37.8326,-9.09622,0][-2.58744,-0.927956,-1.72497][0,-1,0][37.8383,-9.10781,0][1.84345,-0.927956,2.49032][0,-1,0][38.1152,-8.84436,0][-2.67812,-0.927956,-1.53957][0,-1,0][37.8326,-9.09622,0][-2.29604,-0.927956,-2.08042][0,-1,0][37.8565,-9.13003,0][-3.06984,-0.927956,0.245844][0,-1,0][37.8081,-8.98463,0][-2.85948,-0.927956,1.16878][0,-1,0][37.8213,-8.92695,0][-2.95014,-0.927956,0.983382][0,-1,0][37.8156,-8.93854,0][-3.06984,-0.927956,0.245844][0,-1,0][37.8081,-8.98463,0][-3.10972,-0.927956,-6.42032e-08][0,-1,0][37.8056,-9,0][-2.99004,-0.927956,-0.737538][0,-1,0][37.8131,-9.0461,0][-2.58744,-0.927956,1.72497][0,-1,0][37.8383,-8.89219,0][-2.85948,-0.927956,1.16878][0,-1,0][37.8213,-8.92695,0][-2.49032,-0.927956,1.84345][0,-1,0][37.8444,-8.88478,0][-1.53957,-0.927956,2.67812][0,-1,0][37.9038,-8.83262,0][-2.49032,-0.927956,1.84345][0,-1,0][37.8444,-8.88478,0][-2.85948,-0.927956,1.16878][0,-1,0][37.8213,-8.92695,0][-2.85948,-0.927956,1.16878][0,-1,0][37.8213,-8.92695,0][-3.06984,-0.927956,0.245844][0,-1,0][37.8081,-8.98463,0][-0.737538,-0.927956,2.99004][0,-1,0][37.9539,-8.81312,0][-2.08042,-0.927956,2.29604][0,-1,0][37.87,-8.8565,0][-2.1989,-0.927956,2.1989][0,-1,0][37.8626,-8.86257,0][-2.49032,-0.927956,1.84345][0,-1,0][37.8444,-8.88478,0][-1.72497,-0.927956,2.58744][0,-1,0][37.8922,-8.83828,0][-2.08042,-0.927956,2.29604][0,-1,0][37.87,-8.8565,0][-1.53957,-0.927956,2.67812][0,-1,0][37.9038,-8.83262,0][-1.53957,-0.927956,2.67812][0,-1,0][37.9038,-8.83262,0][-2.08042,-0.927956,2.29604][0,-1,0][37.87,-8.8565,0][-2.49032,-0.927956,1.84345][0,-1,0][37.8444,-8.88478,0][-2.19884,-0.927956,-2.19896][0,-1,0][37.8626,-9.13743,0][2.19896,-0.927956,2.19884][0,-1,0][38.1374,-8.86257,0][-2.29604,-0.927956,-2.08042][0,-1,0][37.8565,-9.13003,0][-2.99004,-0.927956,-0.737538][0,-1,0][37.8131,-9.0461,0][1.84345,-0.927956,2.49032][0,-1,0][38.1152,-8.84436,0][1.16878,-0.927956,2.85948][0,-1,0][38.073,-8.82128,0][-2.29604,-0.927956,-2.08042][0,-1,0][37.8565,-9.13003,0][2.19896,-0.927956,2.19884][0,-1,0][38.1374,-8.86257,0][1.84345,-0.927956,2.49032][0,-1,0][38.1152,-8.84436,0][1.16878,-0.927956,2.85948][0,-1,0][38.073,-8.82128,0][1.84345,-0.927956,2.49032][0,-1,0][38.1152,-8.84436,0][1.72497,-0.927956,2.58744][0,-1,0][38.1078,-8.83828,0][-1.53957,-0.927956,2.67812][0,-1,0][37.9038,-8.83262,0][-0.737538,-0.927956,2.99004][0,-1,0][37.9539,-8.81312,0][-0.983382,-0.927956,2.95014][0,-1,0][37.9385,-8.81562,0][-2.85948,-0.927956,1.16878][0,-1,0][37.8213,-8.92695,0][-0.737538,-0.927956,2.99004][0,-1,0][37.9539,-8.81312,0][-1.53957,-0.927956,2.67812][0,-1,0][37.9038,-8.83262,0][1.16878,-0.927956,2.85948][0,-1,0][38.073,-8.82128,0][0.983382,-0.927956,2.95014][0,-1,0][38.0615,-8.81562,0][0.245844,-0.927956,3.06984][0,-1,0][38.0154,-8.80814,0][9.30076e-08,-0.927956,3.10972][0,-1,0][38,-8.80564,0][-0.737538,-0.927956,2.99004][0,-1,0][37.9539,-8.81312,0][0.245844,-0.927956,3.06984][0,-1,0][38.0154,-8.80814,0][-2.99004,-0.927956,-0.737538][0,-1,0][37.8131,-9.0461,0][0.245844,-0.927956,3.06984][0,-1,0][38.0154,-8.80814,0][-0.737538,-0.927956,2.99004][0,-1,0][37.9539,-8.81312,0][0.245844,-0.927956,3.06984][0,-1,0][38.0154,-8.80814,0][-2.99004,-0.927956,-0.737538][0,-1,0][37.8131,-9.0461,0][1.16878,-0.927956,2.85948][0,-1,0][38.073,-8.82128,0]
